<svg xmlns="http://www.w3.org/2000/svg" xmlns:xlink="http://www.w3.org/1999/xlink" width="500" zoomAndPan="magnify" viewBox="0 0 375 374.999991" height="500" preserveAspectRatio="xMidYMid meet" version="1.0"><defs><g/><clipPath id="72f829a0b5"><path d="M 145.789062 116.613281 L 229.039062 116.613281 L 229.039062 176 L 145.789062 176 Z M 145.789062 116.613281 " clip-rule="nonzero"/></clipPath><clipPath id="3f9a4c7200"><path d="M 150 173 L 225 173 L 225 199.863281 L 150 199.863281 Z M 150 173 " clip-rule="nonzero"/></clipPath></defs><g fill="#03466e" fill-opacity="1"><g transform="translate(39.212847, 239.082539)"><g><path d="M 11.671875 -20.40625 C 13.097656 -20.40625 14.492188 -20.128906 15.859375 -19.578125 C 17.222656 -19.023438 18.398438 -18.257812 19.390625 -17.28125 L 17.390625 -14.78125 C 16.648438 -15.570312 15.773438 -16.195312 14.765625 -16.65625 C 13.765625 -17.125 12.753906 -17.359375 11.734375 -17.359375 C 9.703125 -17.359375 7.984375 -16.664062 6.578125 -15.28125 C 5.171875 -13.894531 4.46875 -12.207031 4.46875 -10.21875 C 4.46875 -8.207031 5.171875 -6.507812 6.578125 -5.125 C 7.984375 -3.738281 9.703125 -3.046875 11.734375 -3.046875 C 13.835938 -3.046875 15.722656 -3.847656 17.390625 -5.453125 L 19.421875 -3.1875 C 18.378906 -2.164062 17.160156 -1.351562 15.765625 -0.75 C 14.367188 -0.15625 12.960938 0.140625 11.546875 0.140625 C 8.566406 0.140625 6.0625 -0.847656 4.03125 -2.828125 C 2 -4.816406 0.984375 -7.269531 0.984375 -10.1875 C 0.984375 -13.070312 2.015625 -15.492188 4.078125 -17.453125 C 6.140625 -19.421875 8.671875 -20.40625 11.671875 -20.40625 Z M 11.671875 -20.40625 "/></g></g></g><g fill="#03466e" fill-opacity="1"><g transform="translate(60.917097, 239.082539)"><g><path d="M 4.09375 -17.453125 C 6.164062 -19.421875 8.71875 -20.40625 11.75 -20.40625 C 14.789062 -20.40625 17.347656 -19.421875 19.421875 -17.453125 C 21.492188 -15.492188 22.53125 -13.0625 22.53125 -10.15625 C 22.53125 -7.257812 21.492188 -4.816406 19.421875 -2.828125 C 17.347656 -0.847656 14.789062 0.140625 11.75 0.140625 C 8.71875 0.140625 6.164062 -0.847656 4.09375 -2.828125 C 2.019531 -4.816406 0.984375 -7.257812 0.984375 -10.15625 C 0.984375 -13.0625 2.019531 -15.492188 4.09375 -17.453125 Z M 11.78125 -17.328125 C 9.769531 -17.328125 8.046875 -16.632812 6.609375 -15.25 C 5.179688 -13.875 4.46875 -12.175781 4.46875 -10.15625 C 4.46875 -8.144531 5.1875 -6.4375 6.625 -5.03125 C 8.070312 -3.632812 9.789062 -2.9375 11.78125 -2.9375 C 13.78125 -2.9375 15.484375 -3.632812 16.890625 -5.03125 C 18.304688 -6.4375 19.015625 -8.144531 19.015625 -10.15625 C 19.015625 -12.175781 18.304688 -13.875 16.890625 -15.25 C 15.484375 -16.632812 13.78125 -17.328125 11.78125 -17.328125 Z M 11.78125 -17.328125 "/></g></g></g><g fill="#03466e" fill-opacity="1"><g transform="translate(85.900114, 239.082539)"><g><path d="M 19.9375 -20.328125 L 19.9375 -8.421875 C 19.9375 -5.765625 19.148438 -3.671875 17.578125 -2.140625 C 16.015625 -0.617188 13.859375 0.140625 11.109375 0.140625 C 8.367188 0.140625 6.207031 -0.617188 4.625 -2.140625 C 3.050781 -3.671875 2.265625 -5.765625 2.265625 -8.421875 L 2.265625 -20.328125 L 5.6875 -20.328125 L 5.6875 -8.421875 C 5.6875 -6.710938 6.175781 -5.367188 7.15625 -4.390625 C 8.132812 -3.421875 9.460938 -2.9375 11.140625 -2.9375 C 12.804688 -2.9375 14.117188 -3.414062 15.078125 -4.375 C 16.035156 -5.34375 16.515625 -6.691406 16.515625 -8.421875 L 16.515625 -20.328125 Z M 19.9375 -20.328125 "/></g></g></g><g fill="#03466e" fill-opacity="1"><g transform="translate(109.548407, 239.082539)"><g><path d="M 20.296875 0 L 16.921875 0 L 6.09375 -14.578125 L 6.09375 0 L 2.671875 0 L 2.671875 -20.328125 L 6.03125 -20.328125 L 16.921875 -5.71875 L 16.921875 -20.328125 L 20.296875 -20.328125 Z M 20.296875 0 "/></g></g></g><g fill="#03466e" fill-opacity="1"><g transform="translate(134.009138, 239.082539)"><g><path d="M 16.546875 -17.25 L 10.109375 -17.25 L 10.109375 0 L 6.671875 0 L 6.671875 -17.25 L 0.265625 -17.25 L 0.265625 -20.328125 L 16.546875 -20.328125 Z M 16.546875 -17.25 "/></g></g></g><g fill="#03466e" fill-opacity="1"><g transform="translate(152.289541, 239.082539)"><g><path d="M 6.09375 0 L 2.671875 0 L 2.671875 -20.328125 L 6.09375 -20.328125 Z M 6.09375 0 "/></g></g></g><g fill="#03466e" fill-opacity="1"><g transform="translate(162.53262, 239.082539)"><g><path d="M 20.296875 0 L 16.921875 0 L 6.09375 -14.578125 L 6.09375 0 L 2.671875 0 L 2.671875 -20.328125 L 6.03125 -20.328125 L 16.921875 -5.71875 L 16.921875 -20.328125 L 20.296875 -20.328125 Z M 20.296875 0 "/></g></g></g><g fill="#03466e" fill-opacity="1"><g transform="translate(186.993346, 239.082539)"><g><path d="M 16.578125 -9.984375 L 19.5625 -9.984375 L 19.5625 -2.5 C 18.519531 -1.707031 17.285156 -1.066406 15.859375 -0.578125 C 14.441406 -0.0976562 13.046875 0.140625 11.671875 0.140625 C 8.671875 0.140625 6.140625 -0.847656 4.078125 -2.828125 C 2.015625 -4.816406 0.984375 -7.257812 0.984375 -10.15625 C 0.984375 -13.0625 2.03125 -15.492188 4.125 -17.453125 C 6.21875 -19.421875 8.800781 -20.40625 11.875 -20.40625 C 13.300781 -20.40625 14.707031 -20.148438 16.09375 -19.640625 C 17.476562 -19.128906 18.675781 -18.4375 19.6875 -17.5625 L 17.734375 -15.03125 C 16.066406 -16.582031 14.113281 -17.359375 11.875 -17.359375 C 9.800781 -17.359375 8.046875 -16.660156 6.609375 -15.265625 C 5.179688 -13.878906 4.46875 -12.175781 4.46875 -10.15625 C 4.46875 -8.125 5.1875 -6.410156 6.625 -5.015625 C 8.070312 -3.628906 9.832031 -2.9375 11.90625 -2.9375 C 13.46875 -2.9375 15.023438 -3.398438 16.578125 -4.328125 Z M 16.578125 -9.984375 "/></g></g></g><g fill="#03466e" fill-opacity="1"><g transform="translate(210.206404, 239.082539)"><g/></g></g><g fill="#03466e" fill-opacity="1"><g transform="translate(219.172803, 239.082539)"><g><path d="M 11.671875 -20.40625 C 13.097656 -20.40625 14.492188 -20.128906 15.859375 -19.578125 C 17.222656 -19.023438 18.398438 -18.257812 19.390625 -17.28125 L 17.390625 -14.78125 C 16.648438 -15.570312 15.773438 -16.195312 14.765625 -16.65625 C 13.765625 -17.125 12.753906 -17.359375 11.734375 -17.359375 C 9.703125 -17.359375 7.984375 -16.664062 6.578125 -15.28125 C 5.171875 -13.894531 4.46875 -12.207031 4.46875 -10.21875 C 4.46875 -8.207031 5.171875 -6.507812 6.578125 -5.125 C 7.984375 -3.738281 9.703125 -3.046875 11.734375 -3.046875 C 13.835938 -3.046875 15.722656 -3.847656 17.390625 -5.453125 L 19.421875 -3.1875 C 18.378906 -2.164062 17.160156 -1.351562 15.765625 -0.75 C 14.367188 -0.15625 12.960938 0.140625 11.546875 0.140625 C 8.566406 0.140625 6.0625 -0.847656 4.03125 -2.828125 C 2 -4.816406 0.984375 -7.269531 0.984375 -10.1875 C 0.984375 -13.070312 2.015625 -15.492188 4.078125 -17.453125 C 6.140625 -19.421875 8.671875 -20.40625 11.671875 -20.40625 Z M 11.671875 -20.40625 "/></g></g></g><g fill="#03466e" fill-opacity="1"><g transform="translate(240.877048, 239.082539)"><g><path d="M 15.5625 0 L 11.84375 -6.15625 C 11.644531 -6.132812 11.335938 -6.125 10.921875 -6.125 L 6.09375 -6.125 L 6.09375 0 L 2.671875 0 L 2.671875 -20.328125 L 10.921875 -20.328125 C 13.515625 -20.328125 15.523438 -19.71875 16.953125 -18.5 C 18.390625 -17.289062 19.109375 -15.585938 19.109375 -13.390625 C 19.109375 -11.753906 18.742188 -10.375 18.015625 -9.25 C 17.285156 -8.132812 16.242188 -7.316406 14.890625 -6.796875 L 19.453125 0 Z M 6.09375 -9.203125 L 10.921875 -9.203125 C 14.203125 -9.203125 15.84375 -10.566406 15.84375 -13.296875 C 15.84375 -15.929688 14.203125 -17.25 10.921875 -17.25 L 6.09375 -17.25 Z M 6.09375 -9.203125 "/></g></g></g><g fill="#03466e" fill-opacity="1"><g transform="translate(263.33571, 239.082539)"><g><path d="M 19.9375 -20.328125 L 19.9375 -8.421875 C 19.9375 -5.765625 19.148438 -3.671875 17.578125 -2.140625 C 16.015625 -0.617188 13.859375 0.140625 11.109375 0.140625 C 8.367188 0.140625 6.207031 -0.617188 4.625 -2.140625 C 3.050781 -3.671875 2.265625 -5.765625 2.265625 -8.421875 L 2.265625 -20.328125 L 5.6875 -20.328125 L 5.6875 -8.421875 C 5.6875 -6.710938 6.175781 -5.367188 7.15625 -4.390625 C 8.132812 -3.421875 9.460938 -2.9375 11.140625 -2.9375 C 12.804688 -2.9375 14.117188 -3.414062 15.078125 -4.375 C 16.035156 -5.34375 16.515625 -6.691406 16.515625 -8.421875 L 16.515625 -20.328125 Z M 19.9375 -20.328125 "/></g></g></g><g fill="#03466e" fill-opacity="1"><g transform="translate(286.984009, 239.082539)"><g><path d="M 6.09375 0 L 2.671875 0 L 2.671875 -20.328125 L 6.09375 -20.328125 Z M 6.09375 0 "/></g></g></g><g fill="#03466e" fill-opacity="1"><g transform="translate(297.227088, 239.082539)"><g><path d="M 9.34375 -20.46875 C 11.976562 -20.46875 14.347656 -19.769531 16.453125 -18.375 L 15.03125 -15.359375 C 12.96875 -16.617188 10.988281 -17.25 9.09375 -17.25 C 8.0625 -17.25 7.25 -17.0625 6.65625 -16.6875 C 6.070312 -16.320312 5.78125 -15.800781 5.78125 -15.125 C 5.78125 -14.445312 6.050781 -13.867188 6.59375 -13.390625 C 7.132812 -12.921875 7.8125 -12.570312 8.625 -12.34375 C 9.4375 -12.125 10.316406 -11.84375 11.265625 -11.5 C 12.210938 -11.164062 13.09375 -10.8125 13.90625 -10.4375 C 14.71875 -10.0625 15.390625 -9.472656 15.921875 -8.671875 C 16.453125 -7.867188 16.71875 -6.894531 16.71875 -5.75 C 16.71875 -3.96875 16.003906 -2.546875 14.578125 -1.484375 C 13.160156 -0.421875 11.320312 0.109375 9.0625 0.109375 C 7.507812 0.109375 6.003906 -0.175781 4.546875 -0.75 C 3.097656 -1.332031 1.832031 -2.117188 0.75 -3.109375 L 2.234375 -6.0625 C 3.265625 -5.113281 4.394531 -4.382812 5.625 -3.875 C 6.851562 -3.363281 8.015625 -3.109375 9.109375 -3.109375 C 10.316406 -3.109375 11.253906 -3.320312 11.921875 -3.75 C 12.585938 -4.1875 12.921875 -4.796875 12.921875 -5.578125 C 12.921875 -6.273438 12.648438 -6.859375 12.109375 -7.328125 C 11.566406 -7.804688 10.890625 -8.15625 10.078125 -8.375 C 9.265625 -8.59375 8.382812 -8.863281 7.4375 -9.1875 C 6.488281 -9.507812 5.609375 -9.847656 4.796875 -10.203125 C 3.984375 -10.554688 3.300781 -11.128906 2.75 -11.921875 C 2.207031 -12.722656 1.9375 -13.6875 1.9375 -14.8125 C 1.9375 -16.53125 2.613281 -17.898438 3.96875 -18.921875 C 5.332031 -19.953125 7.125 -20.46875 9.34375 -20.46875 Z M 9.34375 -20.46875 "/></g></g></g><g fill="#03466e" fill-opacity="1"><g transform="translate(316.755171, 239.082539)"><g><path d="M 17.1875 -17.25 L 6.09375 -17.25 L 6.09375 -11.75 L 16.03125 -11.75 L 16.03125 -8.6875 L 6.09375 -8.6875 L 6.09375 -3.078125 L 17.53125 -3.078125 L 17.53125 0 L 2.671875 0 L 2.671875 -20.328125 L 17.1875 -20.328125 Z M 17.1875 -17.25 "/></g></g></g><g fill="#159cbf" fill-opacity="1"><g transform="translate(105.24503, 253.965305)"><g><path d="M 3.078125 0.09375 C 2.585938 0.09375 2.117188 0.0234375 1.671875 -0.109375 C 1.234375 -0.242188 0.878906 -0.421875 0.609375 -0.640625 C 0.460938 -0.753906 0.390625 -0.910156 0.390625 -1.109375 C 0.390625 -1.242188 0.425781 -1.359375 0.5 -1.453125 C 0.582031 -1.554688 0.679688 -1.609375 0.796875 -1.609375 C 0.910156 -1.609375 1.039062 -1.5625 1.1875 -1.46875 C 1.457031 -1.269531 1.742188 -1.125 2.046875 -1.03125 C 2.347656 -0.945312 2.6875 -0.90625 3.0625 -0.90625 C 3.53125 -0.90625 3.890625 -0.984375 4.140625 -1.140625 C 4.390625 -1.304688 4.515625 -1.550781 4.515625 -1.875 C 4.515625 -2.113281 4.394531 -2.296875 4.15625 -2.421875 C 3.925781 -2.554688 3.535156 -2.6875 2.984375 -2.8125 C 2.421875 -2.9375 1.960938 -3.078125 1.609375 -3.234375 C 1.253906 -3.398438 0.988281 -3.609375 0.8125 -3.859375 C 0.632812 -4.109375 0.546875 -4.425781 0.546875 -4.8125 C 0.546875 -5.207031 0.65625 -5.5625 0.875 -5.875 C 1.101562 -6.195312 1.414062 -6.445312 1.8125 -6.625 C 2.21875 -6.800781 2.671875 -6.890625 3.171875 -6.890625 C 4.085938 -6.890625 4.835938 -6.644531 5.421875 -6.15625 C 5.503906 -6.082031 5.5625 -6.007812 5.59375 -5.9375 C 5.632812 -5.875 5.65625 -5.789062 5.65625 -5.6875 C 5.65625 -5.550781 5.613281 -5.429688 5.53125 -5.328125 C 5.445312 -5.234375 5.351562 -5.1875 5.25 -5.1875 C 5.175781 -5.1875 5.113281 -5.195312 5.0625 -5.21875 C 5.007812 -5.238281 4.9375 -5.273438 4.84375 -5.328125 C 4.582031 -5.515625 4.328125 -5.65625 4.078125 -5.75 C 3.835938 -5.84375 3.535156 -5.890625 3.171875 -5.890625 C 2.734375 -5.890625 2.382812 -5.800781 2.125 -5.625 C 1.875 -5.445312 1.75 -5.203125 1.75 -4.890625 C 1.75 -4.628906 1.859375 -4.425781 2.078125 -4.28125 C 2.304688 -4.132812 2.691406 -4.003906 3.234375 -3.890625 C 3.804688 -3.753906 4.269531 -3.609375 4.625 -3.453125 C 4.988281 -3.296875 5.265625 -3.09375 5.453125 -2.84375 C 5.640625 -2.601562 5.734375 -2.300781 5.734375 -1.9375 C 5.734375 -1.539062 5.625 -1.1875 5.40625 -0.875 C 5.1875 -0.570312 4.875 -0.332031 4.46875 -0.15625 C 4.0625 0.0078125 3.597656 0.09375 3.078125 0.09375 Z M 3.078125 0.09375 "/></g></g></g><g fill="#159cbf" fill-opacity="1"><g transform="translate(113.144031, 253.965305)"><g><path d="M 6.765625 -6.84375 C 6.941406 -6.84375 7.082031 -6.785156 7.1875 -6.671875 C 7.300781 -6.554688 7.359375 -6.410156 7.359375 -6.234375 L 7.359375 -0.515625 C 7.359375 -0.335938 7.304688 -0.195312 7.203125 -0.09375 C 7.109375 0.0078125 6.976562 0.0625 6.8125 0.0625 C 6.644531 0.0625 6.507812 0.0078125 6.40625 -0.09375 C 6.3125 -0.195312 6.265625 -0.335938 6.265625 -0.515625 L 6.265625 -4.5 L 4.625 -1.390625 C 4.550781 -1.242188 4.46875 -1.132812 4.375 -1.0625 C 4.28125 -1 4.175781 -0.96875 4.0625 -0.96875 C 3.9375 -0.96875 3.828125 -1 3.734375 -1.0625 C 3.648438 -1.132812 3.566406 -1.242188 3.484375 -1.390625 L 1.84375 -4.4375 L 1.84375 -0.515625 C 1.84375 -0.347656 1.789062 -0.207031 1.6875 -0.09375 C 1.59375 0.0078125 1.460938 0.0625 1.296875 0.0625 C 1.128906 0.0625 0.992188 0.0078125 0.890625 -0.09375 C 0.796875 -0.195312 0.75 -0.335938 0.75 -0.515625 L 0.75 -6.234375 C 0.75 -6.410156 0.800781 -6.554688 0.90625 -6.671875 C 1.007812 -6.785156 1.15625 -6.84375 1.34375 -6.84375 C 1.59375 -6.84375 1.785156 -6.707031 1.921875 -6.4375 L 4.0625 -2.359375 L 6.203125 -6.4375 C 6.335938 -6.707031 6.523438 -6.84375 6.765625 -6.84375 Z M 6.765625 -6.84375 "/></g></g></g><g fill="#159cbf" fill-opacity="1"><g transform="translate(123.000863, 253.965305)"><g><path d="M 3.765625 0.09375 C 3.097656 0.09375 2.519531 -0.046875 2.03125 -0.328125 C 1.550781 -0.617188 1.175781 -1.023438 0.90625 -1.546875 C 0.644531 -2.078125 0.515625 -2.695312 0.515625 -3.40625 C 0.515625 -4.113281 0.644531 -4.726562 0.90625 -5.25 C 1.164062 -5.769531 1.539062 -6.171875 2.03125 -6.453125 C 2.519531 -6.742188 3.097656 -6.890625 3.765625 -6.890625 C 4.421875 -6.890625 4.988281 -6.742188 5.46875 -6.453125 C 5.957031 -6.171875 6.332031 -5.769531 6.59375 -5.25 C 6.851562 -4.726562 6.984375 -4.113281 6.984375 -3.40625 C 6.984375 -2.695312 6.851562 -2.078125 6.59375 -1.546875 C 6.332031 -1.023438 5.957031 -0.617188 5.46875 -0.328125 C 4.988281 -0.046875 4.421875 0.09375 3.765625 0.09375 Z M 3.765625 -0.90625 C 4.378906 -0.90625 4.863281 -1.117188 5.21875 -1.546875 C 5.570312 -1.984375 5.75 -2.601562 5.75 -3.40625 C 5.75 -4.207031 5.570312 -4.820312 5.21875 -5.25 C 4.863281 -5.675781 4.378906 -5.890625 3.765625 -5.890625 C 3.128906 -5.890625 2.632812 -5.675781 2.28125 -5.25 C 1.9375 -4.820312 1.765625 -4.207031 1.765625 -3.40625 C 1.765625 -2.601562 1.9375 -1.984375 2.28125 -1.546875 C 2.632812 -1.117188 3.128906 -0.90625 3.765625 -0.90625 Z M 3.765625 -0.90625 "/></g></g></g><g fill="#159cbf" fill-opacity="1"><g transform="translate(132.259731, 253.965305)"><g><path d="M 3.765625 0.09375 C 3.097656 0.09375 2.519531 -0.046875 2.03125 -0.328125 C 1.550781 -0.617188 1.175781 -1.023438 0.90625 -1.546875 C 0.644531 -2.078125 0.515625 -2.695312 0.515625 -3.40625 C 0.515625 -4.113281 0.644531 -4.726562 0.90625 -5.25 C 1.164062 -5.769531 1.539062 -6.171875 2.03125 -6.453125 C 2.519531 -6.742188 3.097656 -6.890625 3.765625 -6.890625 C 4.421875 -6.890625 4.988281 -6.742188 5.46875 -6.453125 C 5.957031 -6.171875 6.332031 -5.769531 6.59375 -5.25 C 6.851562 -4.726562 6.984375 -4.113281 6.984375 -3.40625 C 6.984375 -2.695312 6.851562 -2.078125 6.59375 -1.546875 C 6.332031 -1.023438 5.957031 -0.617188 5.46875 -0.328125 C 4.988281 -0.046875 4.421875 0.09375 3.765625 0.09375 Z M 3.765625 -0.90625 C 4.378906 -0.90625 4.863281 -1.117188 5.21875 -1.546875 C 5.570312 -1.984375 5.75 -2.601562 5.75 -3.40625 C 5.75 -4.207031 5.570312 -4.820312 5.21875 -5.25 C 4.863281 -5.675781 4.378906 -5.890625 3.765625 -5.890625 C 3.128906 -5.890625 2.632812 -5.675781 2.28125 -5.25 C 1.9375 -4.820312 1.765625 -4.207031 1.765625 -3.40625 C 1.765625 -2.601562 1.9375 -1.984375 2.28125 -1.546875 C 2.632812 -1.117188 3.128906 -0.90625 3.765625 -0.90625 Z M 3.765625 -0.90625 "/></g></g></g><g fill="#159cbf" fill-opacity="1"><g transform="translate(141.518599, 253.965305)"><g><path d="M 2.953125 0.046875 C 2.765625 0.046875 2.613281 -0.0078125 2.5 -0.125 C 2.382812 -0.238281 2.328125 -0.382812 2.328125 -0.5625 L 2.328125 -5.78125 L 0.578125 -5.78125 C 0.191406 -5.78125 0 -5.945312 0 -6.28125 C 0 -6.625 0.191406 -6.796875 0.578125 -6.796875 L 5.328125 -6.796875 C 5.710938 -6.796875 5.90625 -6.625 5.90625 -6.28125 C 5.90625 -5.945312 5.710938 -5.78125 5.328125 -5.78125 L 3.578125 -5.78125 L 3.578125 -0.5625 C 3.578125 -0.382812 3.519531 -0.238281 3.40625 -0.125 C 3.289062 -0.0078125 3.140625 0.046875 2.953125 0.046875 Z M 2.953125 0.046875 "/></g></g></g><g fill="#159cbf" fill-opacity="1"><g transform="translate(149.176484, 253.965305)"><g><path d="M 6.046875 -6.84375 C 6.234375 -6.84375 6.378906 -6.785156 6.484375 -6.671875 C 6.597656 -6.554688 6.65625 -6.410156 6.65625 -6.234375 L 6.65625 -0.5625 C 6.65625 -0.382812 6.597656 -0.234375 6.484375 -0.109375 C 6.367188 0.00390625 6.222656 0.0625 6.046875 0.0625 C 5.859375 0.0625 5.707031 0.00390625 5.59375 -0.109375 C 5.488281 -0.234375 5.4375 -0.382812 5.4375 -0.5625 L 5.4375 -2.953125 L 1.953125 -2.953125 L 1.953125 -0.5625 C 1.953125 -0.382812 1.894531 -0.234375 1.78125 -0.109375 C 1.675781 0.00390625 1.53125 0.0625 1.34375 0.0625 C 1.15625 0.0625 1.003906 0.00390625 0.890625 -0.109375 C 0.785156 -0.234375 0.734375 -0.382812 0.734375 -0.5625 L 0.734375 -6.234375 C 0.734375 -6.410156 0.785156 -6.554688 0.890625 -6.671875 C 1.003906 -6.785156 1.15625 -6.84375 1.34375 -6.84375 C 1.53125 -6.84375 1.675781 -6.785156 1.78125 -6.671875 C 1.894531 -6.554688 1.953125 -6.410156 1.953125 -6.234375 L 1.953125 -3.953125 L 5.4375 -3.953125 L 5.4375 -6.234375 C 5.4375 -6.410156 5.488281 -6.554688 5.59375 -6.671875 C 5.707031 -6.785156 5.859375 -6.84375 6.046875 -6.84375 Z M 6.046875 -6.84375 "/></g></g></g><g fill="#159cbf" fill-opacity="1"><g transform="translate(158.309981, 253.965305)"><g><path d="M 1.328125 0 C 1.140625 0 0.992188 -0.0507812 0.890625 -0.15625 C 0.785156 -0.257812 0.734375 -0.398438 0.734375 -0.578125 L 0.734375 -6.234375 C 0.734375 -6.410156 0.785156 -6.554688 0.890625 -6.671875 C 1.003906 -6.785156 1.15625 -6.84375 1.34375 -6.84375 C 1.539062 -6.84375 1.691406 -6.785156 1.796875 -6.671875 C 1.910156 -6.554688 1.96875 -6.410156 1.96875 -6.234375 L 1.96875 -1.015625 L 4.6875 -1.015625 C 5.070312 -1.015625 5.265625 -0.847656 5.265625 -0.515625 C 5.265625 -0.171875 5.070312 0 4.6875 0 Z M 1.328125 0 "/></g></g></g><g fill="#159cbf" fill-opacity="1"><g transform="translate(165.408482, 253.965305)"><g><path d="M 4.96875 -6.625 C 5.082031 -6.769531 5.222656 -6.84375 5.390625 -6.84375 C 5.535156 -6.84375 5.664062 -6.785156 5.78125 -6.671875 C 5.894531 -6.554688 5.953125 -6.425781 5.953125 -6.28125 C 5.953125 -6.144531 5.90625 -6.019531 5.8125 -5.90625 L 3.625 -3.234375 L 3.625 -0.5625 C 3.625 -0.363281 3.566406 -0.207031 3.453125 -0.09375 C 3.335938 0.0078125 3.191406 0.0625 3.015625 0.0625 C 2.828125 0.0625 2.671875 0.0078125 2.546875 -0.09375 C 2.429688 -0.207031 2.375 -0.363281 2.375 -0.5625 L 2.375 -3.234375 L 0.1875 -5.90625 C 0.09375 -6.019531 0.046875 -6.144531 0.046875 -6.28125 C 0.046875 -6.425781 0.101562 -6.554688 0.21875 -6.671875 C 0.332031 -6.785156 0.460938 -6.84375 0.609375 -6.84375 C 0.773438 -6.84375 0.914062 -6.769531 1.03125 -6.625 L 3.015625 -4.1875 Z M 4.96875 -6.625 "/></g></g></g><g fill="#159cbf" fill-opacity="1"><g transform="translate(173.162804, 253.965305)"><g/></g></g><g fill="#159cbf" fill-opacity="1"><g transform="translate(177.522258, 253.965305)"><g><path d="M 3.078125 0.09375 C 2.585938 0.09375 2.117188 0.0234375 1.671875 -0.109375 C 1.234375 -0.242188 0.878906 -0.421875 0.609375 -0.640625 C 0.460938 -0.753906 0.390625 -0.910156 0.390625 -1.109375 C 0.390625 -1.242188 0.425781 -1.359375 0.5 -1.453125 C 0.582031 -1.554688 0.679688 -1.609375 0.796875 -1.609375 C 0.910156 -1.609375 1.039062 -1.5625 1.1875 -1.46875 C 1.457031 -1.269531 1.742188 -1.125 2.046875 -1.03125 C 2.347656 -0.945312 2.6875 -0.90625 3.0625 -0.90625 C 3.53125 -0.90625 3.890625 -0.984375 4.140625 -1.140625 C 4.390625 -1.304688 4.515625 -1.550781 4.515625 -1.875 C 4.515625 -2.113281 4.394531 -2.296875 4.15625 -2.421875 C 3.925781 -2.554688 3.535156 -2.6875 2.984375 -2.8125 C 2.421875 -2.9375 1.960938 -3.078125 1.609375 -3.234375 C 1.253906 -3.398438 0.988281 -3.609375 0.8125 -3.859375 C 0.632812 -4.109375 0.546875 -4.425781 0.546875 -4.8125 C 0.546875 -5.207031 0.65625 -5.5625 0.875 -5.875 C 1.101562 -6.195312 1.414062 -6.445312 1.8125 -6.625 C 2.21875 -6.800781 2.671875 -6.890625 3.171875 -6.890625 C 4.085938 -6.890625 4.835938 -6.644531 5.421875 -6.15625 C 5.503906 -6.082031 5.5625 -6.007812 5.59375 -5.9375 C 5.632812 -5.875 5.65625 -5.789062 5.65625 -5.6875 C 5.65625 -5.550781 5.613281 -5.429688 5.53125 -5.328125 C 5.445312 -5.234375 5.351562 -5.1875 5.25 -5.1875 C 5.175781 -5.1875 5.113281 -5.195312 5.0625 -5.21875 C 5.007812 -5.238281 4.9375 -5.273438 4.84375 -5.328125 C 4.582031 -5.515625 4.328125 -5.65625 4.078125 -5.75 C 3.835938 -5.84375 3.535156 -5.890625 3.171875 -5.890625 C 2.734375 -5.890625 2.382812 -5.800781 2.125 -5.625 C 1.875 -5.445312 1.75 -5.203125 1.75 -4.890625 C 1.75 -4.628906 1.859375 -4.425781 2.078125 -4.28125 C 2.304688 -4.132812 2.691406 -4.003906 3.234375 -3.890625 C 3.804688 -3.753906 4.269531 -3.609375 4.625 -3.453125 C 4.988281 -3.296875 5.265625 -3.09375 5.453125 -2.84375 C 5.640625 -2.601562 5.734375 -2.300781 5.734375 -1.9375 C 5.734375 -1.539062 5.625 -1.1875 5.40625 -0.875 C 5.1875 -0.570312 4.875 -0.332031 4.46875 -0.15625 C 4.0625 0.0078125 3.597656 0.09375 3.078125 0.09375 Z M 3.078125 0.09375 "/></g></g></g><g fill="#159cbf" fill-opacity="1"><g transform="translate(185.421256, 253.965305)"><g><path d="M 6.890625 -0.75 C 6.929688 -0.65625 6.953125 -0.566406 6.953125 -0.484375 C 6.953125 -0.335938 6.890625 -0.210938 6.765625 -0.109375 C 6.648438 -0.015625 6.515625 0.03125 6.359375 0.03125 C 6.253906 0.03125 6.15625 0.00390625 6.0625 -0.046875 C 5.976562 -0.0976562 5.910156 -0.179688 5.859375 -0.296875 L 5.28125 -1.59375 L 1.890625 -1.59375 L 1.3125 -0.296875 C 1.257812 -0.179688 1.1875 -0.0976562 1.09375 -0.046875 C 1.007812 0.00390625 0.910156 0.03125 0.796875 0.03125 C 0.648438 0.03125 0.515625 -0.015625 0.390625 -0.109375 C 0.273438 -0.210938 0.21875 -0.335938 0.21875 -0.484375 C 0.21875 -0.566406 0.234375 -0.65625 0.265625 -0.75 L 2.9375 -6.453125 C 2.988281 -6.585938 3.070312 -6.6875 3.1875 -6.75 C 3.3125 -6.820312 3.441406 -6.859375 3.578125 -6.859375 C 3.710938 -6.859375 3.835938 -6.820312 3.953125 -6.75 C 4.078125 -6.6875 4.164062 -6.585938 4.21875 -6.453125 Z M 2.3125 -2.5625 L 4.859375 -2.5625 L 3.59375 -5.421875 Z M 2.3125 -2.5625 "/></g></g></g><g fill="#159cbf" fill-opacity="1"><g transform="translate(194.323283, 253.965305)"><g><path d="M 1.34375 0.0625 C 1.15625 0.0625 1.003906 0.00390625 0.890625 -0.109375 C 0.785156 -0.234375 0.734375 -0.382812 0.734375 -0.5625 L 0.734375 -6.234375 C 0.734375 -6.410156 0.785156 -6.554688 0.890625 -6.671875 C 1.003906 -6.785156 1.15625 -6.84375 1.34375 -6.84375 C 1.539062 -6.84375 1.691406 -6.785156 1.796875 -6.671875 C 1.910156 -6.554688 1.96875 -6.410156 1.96875 -6.234375 L 1.96875 -0.5625 C 1.96875 -0.382812 1.910156 -0.234375 1.796875 -0.109375 C 1.691406 0.00390625 1.539062 0.0625 1.34375 0.0625 Z M 1.34375 0.0625 "/></g></g></g><g fill="#159cbf" fill-opacity="1"><g transform="translate(198.779188, 253.965305)"><g><path d="M 1.328125 0 C 1.140625 0 0.992188 -0.0507812 0.890625 -0.15625 C 0.785156 -0.257812 0.734375 -0.398438 0.734375 -0.578125 L 0.734375 -6.234375 C 0.734375 -6.410156 0.785156 -6.554688 0.890625 -6.671875 C 1.003906 -6.785156 1.15625 -6.84375 1.34375 -6.84375 C 1.539062 -6.84375 1.691406 -6.785156 1.796875 -6.671875 C 1.910156 -6.554688 1.96875 -6.410156 1.96875 -6.234375 L 1.96875 -1.015625 L 4.6875 -1.015625 C 5.070312 -1.015625 5.265625 -0.847656 5.265625 -0.515625 C 5.265625 -0.171875 5.070312 0 4.6875 0 Z M 1.328125 0 "/></g></g></g><g fill="#159cbf" fill-opacity="1"><g transform="translate(205.877683, 253.965305)"><g/></g></g><g fill="#159cbf" fill-opacity="1"><g transform="translate(210.237138, 253.965305)"><g><path d="M 2.953125 0.046875 C 2.765625 0.046875 2.613281 -0.0078125 2.5 -0.125 C 2.382812 -0.238281 2.328125 -0.382812 2.328125 -0.5625 L 2.328125 -5.78125 L 0.578125 -5.78125 C 0.191406 -5.78125 0 -5.945312 0 -6.28125 C 0 -6.625 0.191406 -6.796875 0.578125 -6.796875 L 5.328125 -6.796875 C 5.710938 -6.796875 5.90625 -6.625 5.90625 -6.28125 C 5.90625 -5.945312 5.710938 -5.78125 5.328125 -5.78125 L 3.578125 -5.78125 L 3.578125 -0.5625 C 3.578125 -0.382812 3.519531 -0.238281 3.40625 -0.125 C 3.289062 -0.0078125 3.140625 0.046875 2.953125 0.046875 Z M 2.953125 0.046875 "/></g></g></g><g fill="#159cbf" fill-opacity="1"><g transform="translate(217.89502, 253.965305)"><g><path d="M 6.046875 -6.84375 C 6.234375 -6.84375 6.378906 -6.785156 6.484375 -6.671875 C 6.597656 -6.554688 6.65625 -6.410156 6.65625 -6.234375 L 6.65625 -0.5625 C 6.65625 -0.382812 6.597656 -0.234375 6.484375 -0.109375 C 6.367188 0.00390625 6.222656 0.0625 6.046875 0.0625 C 5.859375 0.0625 5.707031 0.00390625 5.59375 -0.109375 C 5.488281 -0.234375 5.4375 -0.382812 5.4375 -0.5625 L 5.4375 -2.953125 L 1.953125 -2.953125 L 1.953125 -0.5625 C 1.953125 -0.382812 1.894531 -0.234375 1.78125 -0.109375 C 1.675781 0.00390625 1.53125 0.0625 1.34375 0.0625 C 1.15625 0.0625 1.003906 0.00390625 0.890625 -0.109375 C 0.785156 -0.234375 0.734375 -0.382812 0.734375 -0.5625 L 0.734375 -6.234375 C 0.734375 -6.410156 0.785156 -6.554688 0.890625 -6.671875 C 1.003906 -6.785156 1.15625 -6.84375 1.34375 -6.84375 C 1.53125 -6.84375 1.675781 -6.785156 1.78125 -6.671875 C 1.894531 -6.554688 1.953125 -6.410156 1.953125 -6.234375 L 1.953125 -3.953125 L 5.4375 -3.953125 L 5.4375 -6.234375 C 5.4375 -6.410156 5.488281 -6.554688 5.59375 -6.671875 C 5.707031 -6.785156 5.859375 -6.84375 6.046875 -6.84375 Z M 6.046875 -6.84375 "/></g></g></g><g fill="#159cbf" fill-opacity="1"><g transform="translate(227.028515, 253.965305)"><g><path d="M 6.171875 -0.78125 C 6.242188 -0.664062 6.28125 -0.550781 6.28125 -0.4375 C 6.28125 -0.289062 6.21875 -0.171875 6.09375 -0.078125 C 5.976562 0.015625 5.84375 0.0625 5.6875 0.0625 C 5.582031 0.0625 5.484375 0.0390625 5.390625 0 C 5.296875 -0.0507812 5.21875 -0.125 5.15625 -0.21875 L 3.875 -2.171875 C 3.75 -2.378906 3.613281 -2.523438 3.46875 -2.609375 C 3.320312 -2.691406 3.132812 -2.734375 2.90625 -2.734375 L 1.953125 -2.734375 L 1.953125 -0.5625 C 1.953125 -0.375 1.894531 -0.222656 1.78125 -0.109375 C 1.675781 0.00390625 1.53125 0.0625 1.34375 0.0625 C 1.15625 0.0625 1.003906 0.00390625 0.890625 -0.109375 C 0.785156 -0.222656 0.734375 -0.375 0.734375 -0.5625 L 0.734375 -6.203125 C 0.734375 -6.390625 0.785156 -6.535156 0.890625 -6.640625 C 0.992188 -6.742188 1.140625 -6.796875 1.328125 -6.796875 L 3.734375 -6.796875 C 4.503906 -6.796875 5.09375 -6.625 5.5 -6.28125 C 5.90625 -5.9375 6.109375 -5.441406 6.109375 -4.796875 C 6.109375 -4.265625 5.957031 -3.828125 5.65625 -3.484375 C 5.351562 -3.148438 4.929688 -2.9375 4.390625 -2.84375 C 4.578125 -2.800781 4.738281 -2.71875 4.875 -2.59375 C 5.019531 -2.476562 5.160156 -2.320312 5.296875 -2.125 Z M 3.5625 -3.6875 C 4.03125 -3.6875 4.375 -3.773438 4.59375 -3.953125 C 4.8125 -4.128906 4.921875 -4.398438 4.921875 -4.765625 C 4.921875 -5.140625 4.8125 -5.410156 4.59375 -5.578125 C 4.375 -5.742188 4.03125 -5.828125 3.5625 -5.828125 L 1.953125 -5.828125 L 1.953125 -3.6875 Z M 3.5625 -3.6875 "/></g></g></g><g fill="#159cbf" fill-opacity="1"><g transform="translate(235.477241, 253.965305)"><g><path d="M 3.765625 0.09375 C 3.097656 0.09375 2.519531 -0.046875 2.03125 -0.328125 C 1.550781 -0.617188 1.175781 -1.023438 0.90625 -1.546875 C 0.644531 -2.078125 0.515625 -2.695312 0.515625 -3.40625 C 0.515625 -4.113281 0.644531 -4.726562 0.90625 -5.25 C 1.164062 -5.769531 1.539062 -6.171875 2.03125 -6.453125 C 2.519531 -6.742188 3.097656 -6.890625 3.765625 -6.890625 C 4.421875 -6.890625 4.988281 -6.742188 5.46875 -6.453125 C 5.957031 -6.171875 6.332031 -5.769531 6.59375 -5.25 C 6.851562 -4.726562 6.984375 -4.113281 6.984375 -3.40625 C 6.984375 -2.695312 6.851562 -2.078125 6.59375 -1.546875 C 6.332031 -1.023438 5.957031 -0.617188 5.46875 -0.328125 C 4.988281 -0.046875 4.421875 0.09375 3.765625 0.09375 Z M 3.765625 -0.90625 C 4.378906 -0.90625 4.863281 -1.117188 5.21875 -1.546875 C 5.570312 -1.984375 5.75 -2.601562 5.75 -3.40625 C 5.75 -4.207031 5.570312 -4.820312 5.21875 -5.25 C 4.863281 -5.675781 4.378906 -5.890625 3.765625 -5.890625 C 3.128906 -5.890625 2.632812 -5.675781 2.28125 -5.25 C 1.9375 -4.820312 1.765625 -4.207031 1.765625 -3.40625 C 1.765625 -2.601562 1.9375 -1.984375 2.28125 -1.546875 C 2.632812 -1.117188 3.128906 -0.90625 3.765625 -0.90625 Z M 3.765625 -0.90625 "/></g></g></g><g fill="#159cbf" fill-opacity="1"><g transform="translate(244.736106, 253.965305)"><g><path d="M 3.53125 0.09375 C 2.601562 0.09375 1.894531 -0.144531 1.40625 -0.625 C 0.925781 -1.113281 0.6875 -1.820312 0.6875 -2.75 L 0.6875 -6.234375 C 0.6875 -6.410156 0.738281 -6.554688 0.84375 -6.671875 C 0.957031 -6.785156 1.109375 -6.84375 1.296875 -6.84375 C 1.484375 -6.84375 1.628906 -6.785156 1.734375 -6.671875 C 1.847656 -6.554688 1.90625 -6.410156 1.90625 -6.234375 L 1.90625 -2.6875 C 1.90625 -2.09375 2.039062 -1.644531 2.3125 -1.34375 C 2.59375 -1.050781 3 -0.90625 3.53125 -0.90625 C 4.0625 -0.90625 4.460938 -1.054688 4.734375 -1.359375 C 5.015625 -1.660156 5.15625 -2.101562 5.15625 -2.6875 L 5.15625 -6.234375 C 5.15625 -6.410156 5.207031 -6.554688 5.3125 -6.671875 C 5.425781 -6.785156 5.578125 -6.84375 5.765625 -6.84375 C 5.953125 -6.84375 6.097656 -6.785156 6.203125 -6.671875 C 6.316406 -6.554688 6.375 -6.410156 6.375 -6.234375 L 6.375 -2.75 C 6.375 -1.832031 6.128906 -1.128906 5.640625 -0.640625 C 5.160156 -0.148438 4.457031 0.09375 3.53125 0.09375 Z M 3.53125 0.09375 "/></g></g></g><g fill="#159cbf" fill-opacity="1"><g transform="translate(253.551329, 253.965305)"><g><path d="M 5.90625 -3.671875 C 6.050781 -3.671875 6.171875 -3.625 6.265625 -3.53125 C 6.359375 -3.445312 6.40625 -3.335938 6.40625 -3.203125 L 6.40625 -1.125 C 6.40625 -0.832031 6.363281 -0.625 6.28125 -0.5 C 6.207031 -0.375 6.050781 -0.273438 5.8125 -0.203125 C 5.550781 -0.109375 5.25 -0.0351562 4.90625 0.015625 C 4.570312 0.0664062 4.25 0.09375 3.9375 0.09375 C 3.226562 0.09375 2.617188 -0.046875 2.109375 -0.328125 C 1.597656 -0.609375 1.203125 -1.007812 0.921875 -1.53125 C 0.648438 -2.050781 0.515625 -2.675781 0.515625 -3.40625 C 0.515625 -4.113281 0.648438 -4.726562 0.921875 -5.25 C 1.203125 -5.78125 1.59375 -6.1875 2.09375 -6.46875 C 2.59375 -6.75 3.179688 -6.890625 3.859375 -6.890625 C 4.765625 -6.890625 5.507812 -6.644531 6.09375 -6.15625 C 6.164062 -6.082031 6.21875 -6.007812 6.25 -5.9375 C 6.289062 -5.863281 6.3125 -5.78125 6.3125 -5.6875 C 6.3125 -5.539062 6.269531 -5.421875 6.1875 -5.328125 C 6.113281 -5.234375 6.023438 -5.1875 5.921875 -5.1875 C 5.847656 -5.1875 5.78125 -5.195312 5.71875 -5.21875 C 5.664062 -5.238281 5.601562 -5.273438 5.53125 -5.328125 C 5.238281 -5.523438 4.972656 -5.664062 4.734375 -5.75 C 4.492188 -5.832031 4.21875 -5.875 3.90625 -5.875 C 3.207031 -5.875 2.675781 -5.664062 2.3125 -5.25 C 1.957031 -4.832031 1.78125 -4.21875 1.78125 -3.40625 C 1.78125 -1.726562 2.515625 -0.890625 3.984375 -0.890625 C 4.421875 -0.890625 4.859375 -0.953125 5.296875 -1.078125 L 5.296875 -2.78125 L 4.203125 -2.78125 C 4.046875 -2.78125 3.925781 -2.816406 3.84375 -2.890625 C 3.757812 -2.972656 3.71875 -3.085938 3.71875 -3.234375 C 3.71875 -3.367188 3.757812 -3.472656 3.84375 -3.546875 C 3.925781 -3.628906 4.046875 -3.671875 4.203125 -3.671875 Z M 5.90625 -3.671875 "/></g></g></g><g fill="#159cbf" fill-opacity="1"><g transform="translate(262.366552, 253.965305)"><g><path d="M 6.046875 -6.84375 C 6.234375 -6.84375 6.378906 -6.785156 6.484375 -6.671875 C 6.597656 -6.554688 6.65625 -6.410156 6.65625 -6.234375 L 6.65625 -0.5625 C 6.65625 -0.382812 6.597656 -0.234375 6.484375 -0.109375 C 6.367188 0.00390625 6.222656 0.0625 6.046875 0.0625 C 5.859375 0.0625 5.707031 0.00390625 5.59375 -0.109375 C 5.488281 -0.234375 5.4375 -0.382812 5.4375 -0.5625 L 5.4375 -2.953125 L 1.953125 -2.953125 L 1.953125 -0.5625 C 1.953125 -0.382812 1.894531 -0.234375 1.78125 -0.109375 C 1.675781 0.00390625 1.53125 0.0625 1.34375 0.0625 C 1.15625 0.0625 1.003906 0.00390625 0.890625 -0.109375 C 0.785156 -0.234375 0.734375 -0.382812 0.734375 -0.5625 L 0.734375 -6.234375 C 0.734375 -6.410156 0.785156 -6.554688 0.890625 -6.671875 C 1.003906 -6.785156 1.15625 -6.84375 1.34375 -6.84375 C 1.53125 -6.84375 1.675781 -6.785156 1.78125 -6.671875 C 1.894531 -6.554688 1.953125 -6.410156 1.953125 -6.234375 L 1.953125 -3.953125 L 5.4375 -3.953125 L 5.4375 -6.234375 C 5.4375 -6.410156 5.488281 -6.554688 5.59375 -6.671875 C 5.707031 -6.785156 5.859375 -6.84375 6.046875 -6.84375 Z M 6.046875 -6.84375 "/></g></g></g><g fill="#159cbf" fill-opacity="1"><g transform="translate(153.713777, 267.465304)"><g><path d="M 3.765625 0.09375 C 3.109375 0.09375 2.535156 -0.046875 2.046875 -0.328125 C 1.554688 -0.617188 1.175781 -1.023438 0.90625 -1.546875 C 0.644531 -2.078125 0.515625 -2.695312 0.515625 -3.40625 C 0.515625 -4.113281 0.644531 -4.726562 0.90625 -5.25 C 1.175781 -5.769531 1.554688 -6.171875 2.046875 -6.453125 C 2.535156 -6.742188 3.109375 -6.890625 3.765625 -6.890625 C 4.191406 -6.890625 4.59375 -6.820312 4.96875 -6.6875 C 5.34375 -6.5625 5.671875 -6.382812 5.953125 -6.15625 C 6.035156 -6.082031 6.09375 -6.007812 6.125 -5.9375 C 6.15625 -5.875 6.171875 -5.789062 6.171875 -5.6875 C 6.171875 -5.539062 6.132812 -5.421875 6.0625 -5.328125 C 5.988281 -5.234375 5.894531 -5.1875 5.78125 -5.1875 C 5.65625 -5.1875 5.523438 -5.234375 5.390625 -5.328125 C 5.109375 -5.523438 4.847656 -5.664062 4.609375 -5.75 C 4.378906 -5.832031 4.117188 -5.875 3.828125 -5.875 C 3.160156 -5.875 2.65625 -5.664062 2.3125 -5.25 C 1.96875 -4.832031 1.796875 -4.21875 1.796875 -3.40625 C 1.796875 -2.582031 1.96875 -1.960938 2.3125 -1.546875 C 2.65625 -1.128906 3.160156 -0.921875 3.828125 -0.921875 C 4.097656 -0.921875 4.351562 -0.960938 4.59375 -1.046875 C 4.832031 -1.128906 5.097656 -1.269531 5.390625 -1.46875 C 5.453125 -1.507812 5.515625 -1.539062 5.578125 -1.5625 C 5.640625 -1.59375 5.707031 -1.609375 5.78125 -1.609375 C 5.894531 -1.609375 5.988281 -1.5625 6.0625 -1.46875 C 6.132812 -1.375 6.171875 -1.253906 6.171875 -1.109375 C 6.171875 -1.015625 6.15625 -0.929688 6.125 -0.859375 C 6.09375 -0.785156 6.035156 -0.710938 5.953125 -0.640625 C 5.671875 -0.410156 5.34375 -0.226562 4.96875 -0.09375 C 4.59375 0.03125 4.191406 0.09375 3.765625 0.09375 Z M 3.765625 0.09375 "/></g></g></g><g fill="#159cbf" fill-opacity="1"><g transform="translate(161.998558, 267.465304)"><g><path d="M 3.765625 0.09375 C 3.097656 0.09375 2.519531 -0.046875 2.03125 -0.328125 C 1.550781 -0.617188 1.175781 -1.023438 0.90625 -1.546875 C 0.644531 -2.078125 0.515625 -2.695312 0.515625 -3.40625 C 0.515625 -4.113281 0.644531 -4.726562 0.90625 -5.25 C 1.164062 -5.769531 1.539062 -6.171875 2.03125 -6.453125 C 2.519531 -6.742188 3.097656 -6.890625 3.765625 -6.890625 C 4.421875 -6.890625 4.988281 -6.742188 5.46875 -6.453125 C 5.957031 -6.171875 6.332031 -5.769531 6.59375 -5.25 C 6.851562 -4.726562 6.984375 -4.113281 6.984375 -3.40625 C 6.984375 -2.695312 6.851562 -2.078125 6.59375 -1.546875 C 6.332031 -1.023438 5.957031 -0.617188 5.46875 -0.328125 C 4.988281 -0.046875 4.421875 0.09375 3.765625 0.09375 Z M 3.765625 -0.90625 C 4.378906 -0.90625 4.863281 -1.117188 5.21875 -1.546875 C 5.570312 -1.984375 5.75 -2.601562 5.75 -3.40625 C 5.75 -4.207031 5.570312 -4.820312 5.21875 -5.25 C 4.863281 -5.675781 4.378906 -5.890625 3.765625 -5.890625 C 3.128906 -5.890625 2.632812 -5.675781 2.28125 -5.25 C 1.9375 -4.820312 1.765625 -4.207031 1.765625 -3.40625 C 1.765625 -2.601562 1.9375 -1.984375 2.28125 -1.546875 C 2.632812 -1.117188 3.128906 -0.90625 3.765625 -0.90625 Z M 3.765625 -0.90625 "/></g></g></g><g fill="#159cbf" fill-opacity="1"><g transform="translate(171.257425, 267.465304)"><g><path d="M 3.53125 0.09375 C 2.601562 0.09375 1.894531 -0.144531 1.40625 -0.625 C 0.925781 -1.113281 0.6875 -1.820312 0.6875 -2.75 L 0.6875 -6.234375 C 0.6875 -6.410156 0.738281 -6.554688 0.84375 -6.671875 C 0.957031 -6.785156 1.109375 -6.84375 1.296875 -6.84375 C 1.484375 -6.84375 1.628906 -6.785156 1.734375 -6.671875 C 1.847656 -6.554688 1.90625 -6.410156 1.90625 -6.234375 L 1.90625 -2.6875 C 1.90625 -2.09375 2.039062 -1.644531 2.3125 -1.34375 C 2.59375 -1.050781 3 -0.90625 3.53125 -0.90625 C 4.0625 -0.90625 4.460938 -1.054688 4.734375 -1.359375 C 5.015625 -1.660156 5.15625 -2.101562 5.15625 -2.6875 L 5.15625 -6.234375 C 5.15625 -6.410156 5.207031 -6.554688 5.3125 -6.671875 C 5.425781 -6.785156 5.578125 -6.84375 5.765625 -6.84375 C 5.953125 -6.84375 6.097656 -6.785156 6.203125 -6.671875 C 6.316406 -6.554688 6.375 -6.410156 6.375 -6.234375 L 6.375 -2.75 C 6.375 -1.832031 6.128906 -1.128906 5.640625 -0.640625 C 5.160156 -0.148438 4.457031 0.09375 3.53125 0.09375 Z M 3.53125 0.09375 "/></g></g></g><g fill="#159cbf" fill-opacity="1"><g transform="translate(180.072651, 267.465304)"><g><path d="M 5.875 -6.84375 C 6.0625 -6.84375 6.207031 -6.785156 6.3125 -6.671875 C 6.414062 -6.554688 6.46875 -6.410156 6.46875 -6.234375 L 6.46875 -0.5625 C 6.46875 -0.382812 6.410156 -0.234375 6.296875 -0.109375 C 6.191406 0.00390625 6.050781 0.0625 5.875 0.0625 C 5.675781 0.0625 5.519531 -0.0078125 5.40625 -0.15625 L 1.890625 -4.75 L 1.890625 -0.5625 C 1.890625 -0.382812 1.835938 -0.234375 1.734375 -0.109375 C 1.628906 0.00390625 1.488281 0.0625 1.3125 0.0625 C 1.132812 0.0625 0.992188 0.00390625 0.890625 -0.109375 C 0.785156 -0.234375 0.734375 -0.382812 0.734375 -0.5625 L 0.734375 -6.234375 C 0.734375 -6.410156 0.785156 -6.554688 0.890625 -6.671875 C 1.003906 -6.785156 1.148438 -6.84375 1.328125 -6.84375 C 1.523438 -6.84375 1.679688 -6.769531 1.796875 -6.625 L 5.296875 -2.0625 L 5.296875 -6.234375 C 5.296875 -6.410156 5.347656 -6.554688 5.453125 -6.671875 C 5.566406 -6.785156 5.707031 -6.84375 5.875 -6.84375 Z M 5.875 -6.84375 "/></g></g></g><g fill="#159cbf" fill-opacity="1"><g transform="translate(189.022895, 267.465304)"><g><path d="M 2.953125 0.046875 C 2.765625 0.046875 2.613281 -0.0078125 2.5 -0.125 C 2.382812 -0.238281 2.328125 -0.382812 2.328125 -0.5625 L 2.328125 -5.78125 L 0.578125 -5.78125 C 0.191406 -5.78125 0 -5.945312 0 -6.28125 C 0 -6.625 0.191406 -6.796875 0.578125 -6.796875 L 5.328125 -6.796875 C 5.710938 -6.796875 5.90625 -6.625 5.90625 -6.28125 C 5.90625 -5.945312 5.710938 -5.78125 5.328125 -5.78125 L 3.578125 -5.78125 L 3.578125 -0.5625 C 3.578125 -0.382812 3.519531 -0.238281 3.40625 -0.125 C 3.289062 -0.0078125 3.140625 0.046875 2.953125 0.046875 Z M 2.953125 0.046875 "/></g></g></g><g fill="#159cbf" fill-opacity="1"><g transform="translate(196.68078, 267.465304)"><g><path d="M 1.34375 0.0625 C 1.15625 0.0625 1.003906 0.00390625 0.890625 -0.109375 C 0.785156 -0.234375 0.734375 -0.382812 0.734375 -0.5625 L 0.734375 -6.234375 C 0.734375 -6.410156 0.785156 -6.554688 0.890625 -6.671875 C 1.003906 -6.785156 1.15625 -6.84375 1.34375 -6.84375 C 1.539062 -6.84375 1.691406 -6.785156 1.796875 -6.671875 C 1.910156 -6.554688 1.96875 -6.410156 1.96875 -6.234375 L 1.96875 -0.5625 C 1.96875 -0.382812 1.910156 -0.234375 1.796875 -0.109375 C 1.691406 0.00390625 1.539062 0.0625 1.34375 0.0625 Z M 1.34375 0.0625 "/></g></g></g><g fill="#159cbf" fill-opacity="1"><g transform="translate(201.136688, 267.465304)"><g><path d="M 5.875 -6.84375 C 6.0625 -6.84375 6.207031 -6.785156 6.3125 -6.671875 C 6.414062 -6.554688 6.46875 -6.410156 6.46875 -6.234375 L 6.46875 -0.5625 C 6.46875 -0.382812 6.410156 -0.234375 6.296875 -0.109375 C 6.191406 0.00390625 6.050781 0.0625 5.875 0.0625 C 5.675781 0.0625 5.519531 -0.0078125 5.40625 -0.15625 L 1.890625 -4.75 L 1.890625 -0.5625 C 1.890625 -0.382812 1.835938 -0.234375 1.734375 -0.109375 C 1.628906 0.00390625 1.488281 0.0625 1.3125 0.0625 C 1.132812 0.0625 0.992188 0.00390625 0.890625 -0.109375 C 0.785156 -0.234375 0.734375 -0.382812 0.734375 -0.5625 L 0.734375 -6.234375 C 0.734375 -6.410156 0.785156 -6.554688 0.890625 -6.671875 C 1.003906 -6.785156 1.148438 -6.84375 1.328125 -6.84375 C 1.523438 -6.84375 1.679688 -6.769531 1.796875 -6.625 L 5.296875 -2.0625 L 5.296875 -6.234375 C 5.296875 -6.410156 5.347656 -6.554688 5.453125 -6.671875 C 5.566406 -6.785156 5.707031 -6.84375 5.875 -6.84375 Z M 5.875 -6.84375 "/></g></g></g><g fill="#159cbf" fill-opacity="1"><g transform="translate(210.086935, 267.465304)"><g><path d="M 5.90625 -3.671875 C 6.050781 -3.671875 6.171875 -3.625 6.265625 -3.53125 C 6.359375 -3.445312 6.40625 -3.335938 6.40625 -3.203125 L 6.40625 -1.125 C 6.40625 -0.832031 6.363281 -0.625 6.28125 -0.5 C 6.207031 -0.375 6.050781 -0.273438 5.8125 -0.203125 C 5.550781 -0.109375 5.25 -0.0351562 4.90625 0.015625 C 4.570312 0.0664062 4.25 0.09375 3.9375 0.09375 C 3.226562 0.09375 2.617188 -0.046875 2.109375 -0.328125 C 1.597656 -0.609375 1.203125 -1.007812 0.921875 -1.53125 C 0.648438 -2.050781 0.515625 -2.675781 0.515625 -3.40625 C 0.515625 -4.113281 0.648438 -4.726562 0.921875 -5.25 C 1.203125 -5.78125 1.59375 -6.1875 2.09375 -6.46875 C 2.59375 -6.75 3.179688 -6.890625 3.859375 -6.890625 C 4.765625 -6.890625 5.507812 -6.644531 6.09375 -6.15625 C 6.164062 -6.082031 6.21875 -6.007812 6.25 -5.9375 C 6.289062 -5.863281 6.3125 -5.78125 6.3125 -5.6875 C 6.3125 -5.539062 6.269531 -5.421875 6.1875 -5.328125 C 6.113281 -5.234375 6.023438 -5.1875 5.921875 -5.1875 C 5.847656 -5.1875 5.78125 -5.195312 5.71875 -5.21875 C 5.664062 -5.238281 5.601562 -5.273438 5.53125 -5.328125 C 5.238281 -5.523438 4.972656 -5.664062 4.734375 -5.75 C 4.492188 -5.832031 4.21875 -5.875 3.90625 -5.875 C 3.207031 -5.875 2.675781 -5.664062 2.3125 -5.25 C 1.957031 -4.832031 1.78125 -4.21875 1.78125 -3.40625 C 1.78125 -1.726562 2.515625 -0.890625 3.984375 -0.890625 C 4.421875 -0.890625 4.859375 -0.953125 5.296875 -1.078125 L 5.296875 -2.78125 L 4.203125 -2.78125 C 4.046875 -2.78125 3.925781 -2.816406 3.84375 -2.890625 C 3.757812 -2.972656 3.71875 -3.085938 3.71875 -3.234375 C 3.71875 -3.367188 3.757812 -3.472656 3.84375 -3.546875 C 3.925781 -3.628906 4.046875 -3.671875 4.203125 -3.671875 Z M 5.90625 -3.671875 "/></g></g></g><g fill="#159cbf" fill-opacity="1"><g transform="translate(218.902158, 267.465304)"><g><path d="M 1.203125 -1.96875 C 1.097656 -1.96875 1.007812 -2 0.9375 -2.0625 C 0.875 -2.125 0.835938 -2.21875 0.828125 -2.34375 L 0.46875 -6.09375 L 0.46875 -6.1875 C 0.46875 -6.382812 0.535156 -6.539062 0.671875 -6.65625 C 0.804688 -6.78125 0.984375 -6.84375 1.203125 -6.84375 C 1.410156 -6.84375 1.582031 -6.78125 1.71875 -6.65625 C 1.851562 -6.539062 1.921875 -6.382812 1.921875 -6.1875 L 1.921875 -6.078125 L 1.5625 -2.34375 C 1.550781 -2.21875 1.507812 -2.125 1.4375 -2.0625 C 1.375 -2 1.296875 -1.96875 1.203125 -1.96875 Z M 1.203125 0.0625 C 0.992188 0.0625 0.820312 -0.00390625 0.6875 -0.140625 C 0.550781 -0.285156 0.484375 -0.460938 0.484375 -0.671875 C 0.484375 -0.867188 0.550781 -1.035156 0.6875 -1.171875 C 0.820312 -1.316406 0.992188 -1.390625 1.203125 -1.390625 C 1.398438 -1.390625 1.566406 -1.316406 1.703125 -1.171875 C 1.835938 -1.035156 1.90625 -0.867188 1.90625 -0.671875 C 1.90625 -0.460938 1.835938 -0.285156 1.703125 -0.140625 C 1.566406 -0.00390625 1.398438 0.0625 1.203125 0.0625 Z M 1.203125 0.0625 "/></g></g></g><g clip-path="url(#72f829a0b5)"><path fill="#03466e" d="M 187.414062 116.613281 C 164.425781 116.613281 145.789062 135.25 145.789062 158.238281 C 145.789062 164.488281 147.167969 170.417969 149.636719 175.738281 L 149.992188 175.636719 C 151.738281 175.148438 153.621094 174.496094 155.582031 173.710938 C 155.828125 173.613281 156.078125 173.515625 156.324219 173.425781 C 154.082031 168.839844 152.820312 163.6875 152.820312 158.238281 C 152.820312 139.132812 168.308594 123.644531 187.414062 123.644531 C 206.519531 123.644531 222.011719 139.132812 222.011719 158.238281 C 222.011719 163.6875 220.75 168.839844 218.507812 173.425781 C 218.753906 173.515625 219.003906 173.613281 219.25 173.710938 C 221.210938 174.496094 223.089844 175.148438 224.839844 175.636719 L 225.195312 175.738281 C 227.664062 170.417969 229.039062 164.488281 229.039062 158.238281 C 229.039062 135.25 210.402344 116.613281 187.414062 116.613281 " fill-opacity="1" fill-rule="nonzero"/></g><g clip-path="url(#3f9a4c7200)"><path fill="#51c6e5" d="M 224.308594 177.535156 C 222.566406 177.042969 220.644531 176.390625 218.515625 175.539062 C 200.667969 168.382812 187.414062 181.015625 187.414062 181.015625 C 187.414062 181.015625 174.164062 168.382812 156.316406 175.539062 C 154.1875 176.390625 152.265625 177.042969 150.523438 177.535156 C 150.882812 178.222656 151.265625 178.898438 151.660156 179.5625 C 151.671875 179.585938 151.6875 179.605469 151.703125 179.628906 C 151.746094 179.703125 151.792969 179.777344 151.835938 179.851562 C 151.925781 179.996094 152.011719 180.136719 152.101562 180.28125 C 152.125 180.320312 152.148438 180.359375 152.171875 180.398438 L 152.175781 180.398438 C 159.542969 192.09375 172.570312 199.863281 187.414062 199.863281 C 202.261719 199.863281 215.289062 192.09375 222.65625 180.398438 L 222.660156 180.398438 C 222.679688 180.359375 222.703125 180.324219 222.726562 180.289062 C 222.828125 180.125 222.929688 179.964844 223.027344 179.800781 C 223.066406 179.738281 223.101562 179.675781 223.140625 179.613281 C 223.171875 179.5625 223.203125 179.511719 223.234375 179.457031 L 223.230469 179.457031 C 223.605469 178.828125 223.964844 178.1875 224.308594 177.535156 " fill-opacity="1" fill-rule="nonzero"/></g><path fill="#03466e" d="M 187.414062 176.363281 C 186.4375 175.660156 185.160156 174.824219 183.632812 173.988281 C 180.96875 172.535156 178.167969 171.433594 175.289062 170.707031 C 173.597656 166.269531 171.535156 162.125 170.566406 160.253906 C 175.933594 153.773438 185.230469 150.605469 187.414062 149.929688 Z M 187.414062 148.070312 C 187.414062 148.070312 174.773438 151.507812 168.457031 160.0625 C 168.457031 160.0625 171.691406 166.039062 173.953125 172.21875 C 177.582031 173.023438 180.601562 174.363281 182.78125 175.550781 C 184.835938 176.675781 186.410156 177.800781 187.414062 178.589844 C 188.421875 177.800781 189.996094 176.675781 192.050781 175.550781 C 194.230469 174.363281 197.25 173.023438 200.878906 172.21875 C 203.140625 166.039062 206.375 160.0625 206.375 160.0625 C 200.058594 151.507812 187.414062 148.070312 187.414062 148.070312 " fill-opacity="1" fill-rule="nonzero"/><path fill="#03466e" d="M 187.414062 144.972656 L 186.921875 145.109375 C 186.785156 145.144531 183.546875 146.035156 179.476562 148.023438 C 178.316406 148.585938 177.195312 149.191406 176.132812 149.824219 L 174.566406 143.289062 L 187.414062 142.164062 Z M 187.414062 141.132812 L 173.261719 142.257812 L 175.464844 151.453125 C 176.847656 150.5625 178.339844 149.722656 179.929688 148.949219 C 183.90625 147.007812 187.058594 146.140625 187.191406 146.105469 L 187.414062 146.042969 L 187.640625 146.105469 C 187.773438 146.140625 190.925781 147.007812 194.902344 148.949219 C 196.492188 149.722656 197.984375 150.5625 199.367188 151.453125 L 201.570312 142.257812 L 187.414062 141.132812 " fill-opacity="1" fill-rule="nonzero"/><path fill="#03466e" d="M 187.414062 138.496094 L 181.316406 139.152344 L 181.316406 137.417969 L 184.835938 136.761719 L 184.835938 133.632812 L 187.414062 132.617188 Z M 191.023438 135.730469 L 191.023438 132.601562 L 188.003906 131.359375 L 187.414062 128.039062 L 186.828125 131.359375 L 183.808594 132.601562 L 183.808594 135.730469 L 180.285156 136.386719 L 180.285156 140.179688 L 187.414062 139.527344 L 194.546875 140.179688 L 194.546875 136.386719 L 191.023438 135.730469 " fill-opacity="1" fill-rule="nonzero"/></svg>