<svg xmlns:xlink="http://www.w3.org/1999/xlink" xmlns="http://www.w3.org/2000/svg" viewBox="0 0 371 179" preserveAspectRatio="xMidYMid meet" class="css-116ckqy" id="ehcheheg" width="371"  height="179" ><defs id="SvgjsDefs1796"></defs><g id="SvgjsG1797" featurekey="rootContainer" transform="matrix(1,0,0,1,0,0)" fill="#111111"><rect y="0" height="1" width="1" opacity="0" fill="#111111"></rect><rect y="174" width="371" height="5" fill="#111111"></rect></g><g id="SvgjsG1798" featurekey="symbolFeature-0" transform="matrix(1.7265194565757127,0,0,1.7265194565757127,-11.498626726765966,34.82044163027286)" fill="#111111"><title xmlns="http://www.w3.org/2000/svg">Artboard 9</title><g xmlns="http://www.w3.org/2000/svg" data-name="Layer 3" fill="#111111"><path d="M32,6.66A25.34,25.34,0,1,0,57.34,32,25.37,25.37,0,0,0,32,6.66Zm0,48.68A23.34,23.34,0,1,1,55.34,32,23.37,23.37,0,0,1,32,55.34Z" fill="#111111"></path><path d="M32,47.23a1,1,0,0,0-1,1V52a1,1,0,0,0,2,0V48.23A1,1,0,0,0,32,47.23Z" fill="#111111"></path><path d="M32,16.77a1,1,0,0,0,1-1V12.05a1,1,0,1,0-2,0v3.72A1,1,0,0,0,32,16.77Z" fill="#111111"></path><path d="M47.23,32a1,1,0,0,0,1,1H52a1,1,0,0,0,0-2H48.23A1,1,0,0,0,47.23,32Z" fill="#111111"></path><path d="M15.77,31H12.05a1,1,0,1,0,0,2h3.72a1,1,0,0,0,0-2Z" fill="#111111"></path><path d="M18.61,17.19a1,1,0,1,0-1.42,1.42l2.63,2.63a1,1,0,0,0,.71.29,1,1,0,0,0,.71-.29,1,1,0,0,0,0-1.42Z" fill="#111111"></path><path d="M44.18,42.76a1,1,0,0,0-1.42,1.42l2.63,2.63a1,1,0,0,0,1.42,0,1,1,0,0,0,0-1.42Z" fill="#111111"></path><path d="M45.39,17.19l-2.63,2.63a1,1,0,0,0,0,1.42,1,1,0,0,0,.71.29,1,1,0,0,0,.71-.29l2.63-2.63a1,1,0,1,0-1.42-1.42Z" fill="#111111"></path><path d="M19.82,42.76l-2.63,2.63a1,1,0,0,0,0,1.42,1,1,0,0,0,1.42,0l2.63-2.63a1,1,0,1,0-1.42-1.42Z" fill="#111111"></path><path d="M33.86,26.22a1,1,0,0,0-.65-.51L24,23.46a1,1,0,0,0-1.21,1.21l2.25,9.19a1,1,0,0,0,.51.65l14.19,7.25a1.07,1.07,0,0,0,.46.11,1,1,0,0,0,.89-1.45Zm-7,6.72L25.14,25.8l7.15,1.74,5.63,11Z" fill="#111111"></path><path d="M36.5,3h-9a1,1,0,0,0,0,2h9a1,1,0,0,0,0-2Z" fill="#111111"></path><path d="M36.5,59h-9a1,1,0,0,0,0,2h9a1,1,0,0,0,0-2Z" fill="#111111"></path></g></g><g id="SvgjsG1799" featurekey="nameFeature-0" transform="matrix(1.940778459380745,0,0,1.940778459380745,105.59343515457681,-4.668287445233972)" fill="#111111"><path d="M10.2 29.560000000000002 l4.16 0 l0 3.72 c0 4.48 -2.24 7.04 -6.56 7.04 s-6.56 -2.56 -6.56 -7.04 l0 -14.56 c0 -4.48 2.24 -7.04 6.56 -7.04 s6.56 2.56 6.56 7.04 l0 2.72 l-4.16 0 l0 -3 c0 -2 -0.88 -2.76 -2.28 -2.76 s-2.28 0.76 -2.28 2.76 l0 15.12 c0 2 0.88 2.72 2.28 2.72 s2.28 -0.72 2.28 -2.72 l0 -4 z M23.785 18.44 l0 15.12 c0 2 0.88 2.76 2.28 2.76 s2.28 -0.76 2.28 -2.76 l0 -15.12 c0 -2 -0.88 -2.76 -2.28 -2.76 s-2.28 0.76 -2.28 2.76 z M19.384999999999998 33.28 l0 -14.56 c0 -4.48 2.36 -7.04 6.68 -7.04 s6.68 2.56 6.68 7.04 l0 14.56 c0 4.48 -2.36 7.04 -6.68 7.04 s-6.68 -2.56 -6.68 -7.04 z M38.089999999999996 12 l4.4 0 l0 21.6 c0 2 0.88 2.72 2.28 2.72 s2.28 -0.72 2.28 -2.72 l0 -21.6 l4.16 0 l0 21.32 c0 4.48 -2.24 7.04 -6.56 7.04 s-6.56 -2.56 -6.56 -7.04 l0 -21.32 z M66.315 40 l-5.4 -20.28 l-0.08 0 l0 20.28 l-3.96 0 l0 -28 l5.52 0 l4.44 16.76 l0.08 0 l0 -16.76 l3.92 0 l0 28 l-4.52 0 z M75.41999999999999 16 l0 -4 l13.6 0 l0 4 l-4.6 0 l0 24 l-4.4 0 l0 -24 l-4.6 0 z M93.64499999999998 40 l0 -28 l4.4 0 l0 28 l-4.4 0 z M113.35 40 l-5.4 -20.28 l-0.08 0 l0 20.28 l-3.96 0 l0 -28 l5.52 0 l4.44 16.76 l0.08 0 l0 -16.76 l3.92 0 l0 28 l-4.52 0 z M130.33499999999998 28.4 l0 -4 l6.16 0 l0 8.88 c0 4.48 -2.24 7.04 -6.56 7.04 s-6.56 -2.56 -6.56 -7.04 l0 -14.56 c0 -4.48 2.24 -7.04 6.56 -7.04 s6.56 2.56 6.56 7.04 l0 2.72 l-4.16 0 l0 -3 c0 -2 -0.88 -2.76 -2.28 -2.76 s-2.28 0.76 -2.28 2.76 l0 15.12 c0 2 0.88 2.72 2.28 2.72 s2.28 -0.72 2.28 -2.72 l0 -5.16 l-2 0 z" fill="#111111"></path></g><g id="SvgjsG1800" featurekey="nameFeature-1" transform="matrix(2.737654420939033,0,0,2.737654420939033,104.60530914463497,52.024203360458394)" fill="#111111"><path d="M10.2 29.560000000000002 l4.16 0 l0 3.72 c0 4.48 -2.24 7.04 -6.56 7.04 s-6.56 -2.56 -6.56 -7.04 l0 -14.56 c0 -4.48 2.24 -7.04 6.56 -7.04 s6.56 2.56 6.56 7.04 l0 2.72 l-4.16 0 l0 -3 c0 -2 -0.88 -2.76 -2.28 -2.76 s-2.28 0.76 -2.28 2.76 l0 15.12 c0 2 0.88 2.72 2.28 2.72 s2.28 -0.72 2.28 -2.72 l0 -4 z M33.425 40 l-4.48 0 c-0.24 -0.72 -0.4 -1.16 -0.4 -3.44 l0 -4.4 c0 -2.6 -0.88 -3.56 -2.88 -3.56 l-1.52 0 l0 11.4 l-4.4 0 l0 -28 l6.64 0 c4.56 0 6.52 2.12 6.52 6.44 l0 2.2 c0 2.88 -0.92 4.72 -2.88 5.64 l0 0.08 c2.2 0.92 2.92 3 2.92 5.92 l0 4.32 c0 1.36 0.04 2.36 0.48 3.4 z M26.265 16 l-2.12 0 l0 8.6 l1.72 0 c1.64 0 2.64 -0.72 2.64 -2.96 l0 -2.76 c0 -2 -0.68 -2.88 -2.24 -2.88 z M38.330000000000005 12 l4.4 0 l0 21.6 c0 2 0.88 2.72 2.28 2.72 s2.28 -0.72 2.28 -2.72 l0 -21.6 l4.16 0 l0 21.32 c0 4.48 -2.24 7.04 -6.56 7.04 s-6.56 -2.56 -6.56 -7.04 l0 -21.32 z M57.15500000000001 40 l0 -28 l4.4 0 l0 28 l-4.4 0 z M66.90000000000002 18.72 c0 -4.48 2.2 -7.04 6.48 -7.04 s6.48 2.56 6.48 7.04 l0 0.88 l-4.16 0 l0 -1.16 c0 -2 -0.8 -2.76 -2.2 -2.76 s-2.2 0.76 -2.2 2.76 c0 2.04 0.88 3.56 3.76 6.08 c3.68 3.24 4.84 5.56 4.84 8.76 c0 4.48 -2.24 7.04 -6.56 7.04 s-6.56 -2.56 -6.56 -7.04 l0 -1.72 l4.16 0 l0 2 c0 2 0.88 2.72 2.28 2.72 s2.28 -0.72 2.28 -2.72 c0 -2.04 -0.88 -3.56 -3.76 -6.08 c-3.68 -3.24 -4.84 -5.56 -4.84 -8.76 z M89.525 16 l0 7.8 l6.04 0 l0 4 l-6.04 0 l0 8.2 l7.6 0 l0 4 l-12 0 l0 -28 l12 0 l0 4 l-7.6 0 z" fill="#111111"></path></g></svg>