<svg xmlns="http://www.w3.org/2000/svg" xmlns:xlink="http://www.w3.org/1999/xlink" width="500" zoomAndPan="magnify" viewBox="0 0 375 374.999991" height="500" preserveAspectRatio="xMidYMid meet" version="1.0"><defs><g/><clipPath id="08fbf652da"><path d="M 99.050781 80.949219 L 268.042969 80.949219 L 268.042969 249.945312 L 99.050781 249.945312 Z M 99.050781 80.949219 " clip-rule="nonzero"/></clipPath><clipPath id="e45a9e56a2"><path d="M 183.546875 80.949219 C 136.878906 80.949219 99.050781 118.78125 99.050781 165.449219 C 99.050781 212.113281 136.878906 249.945312 183.546875 249.945312 C 230.210938 249.945312 268.042969 212.113281 268.042969 165.449219 C 268.042969 118.78125 230.210938 80.949219 183.546875 80.949219 " clip-rule="nonzero"/></clipPath><clipPath id="f86142ccc0"><path d="M 110.039062 121 L 274 121 L 274 249.949219 L 110.039062 249.949219 Z M 110.039062 121 " clip-rule="nonzero"/></clipPath></defs><g clip-path="url(#08fbf652da)"><g clip-path="url(#e45a9e56a2)"><path fill="#03989e" d="M 99.050781 80.949219 L 268.042969 80.949219 L 268.042969 249.945312 L 99.050781 249.945312 Z M 99.050781 80.949219 " fill-opacity="1" fill-rule="nonzero"/></g></g><g clip-path="url(#f86142ccc0)"><path fill="#b3e0e2" d="M 125.175781 245.78125 C 123.988281 245.78125 122.8125 246.058594 121.742188 246.578125 L 121.320312 246.78125 C 119.164062 247.855469 116.628906 247.855469 114.46875 246.78125 L 114.050781 246.578125 C 113.296875 246.214844 112.5 245.96875 111.660156 245.855469 L 111.660156 247.679688 C 112.226562 247.78125 112.761719 247.957031 113.253906 248.203125 L 113.671875 248.40625 C 116.339844 249.726562 119.46875 249.726562 122.117188 248.40625 L 122.539062 248.203125 C 124.191406 247.390625 126.128906 247.390625 127.78125 248.203125 L 128.203125 248.40625 C 130.867188 249.726562 133.996094 249.726562 136.644531 248.40625 L 137.082031 248.203125 C 138.730469 247.390625 140.671875 247.390625 142.324219 248.203125 L 142.746094 248.40625 C 145.394531 249.726562 148.523438 249.726562 151.1875 248.40625 L 151.609375 248.203125 C 153.261719 247.390625 155.199219 247.390625 156.851562 248.203125 L 157.273438 248.40625 C 159.9375 249.726562 163.050781 249.726562 165.71875 248.40625 L 166.136719 248.203125 C 167.789062 247.390625 169.730469 247.390625 171.378906 248.203125 L 171.800781 248.40625 C 174.464844 249.726562 177.59375 249.726562 180.257812 248.40625 L 180.679688 248.203125 C 182.332031 247.390625 184.273438 247.390625 185.921875 248.203125 L 186.34375 248.40625 C 188.992188 249.726562 192.121094 249.726562 194.789062 248.40625 L 195.207031 248.203125 C 196.859375 247.390625 198.800781 247.390625 200.449219 248.203125 L 200.871094 248.40625 C 203.535156 249.726562 206.648438 249.726562 209.316406 248.40625 L 209.734375 248.203125 C 211.402344 247.390625 213.328125 247.390625 214.980469 248.203125 L 215.398438 248.40625 C 218.0625 249.726562 221.179688 249.726562 223.84375 248.40625 L 224.261719 248.203125 C 225.929688 247.390625 227.871094 247.390625 229.519531 248.203125 L 229.941406 248.40625 C 232.59375 249.726562 235.722656 249.726562 238.371094 248.40625 L 238.792969 248.203125 C 240.457031 247.390625 242.398438 247.390625 244.050781 248.203125 L 244.46875 248.40625 C 246.453125 249.390625 248.726562 249.652344 250.886719 249.144531 L 250.886719 247.273438 C 249.019531 247.824219 247.019531 247.667969 245.265625 246.796875 L 244.847656 246.578125 C 242.6875 245.519531 240.167969 245.519531 238.007812 246.578125 L 237.589844 246.796875 C 235.429688 247.871094 232.894531 247.871094 230.738281 246.796875 L 230.304688 246.578125 C 228.160156 245.519531 225.625 245.519531 223.46875 246.578125 L 223.046875 246.796875 C 220.890625 247.871094 218.355469 247.871094 216.195312 246.796875 L 215.777344 246.578125 C 213.617188 245.519531 211.097656 245.519531 208.9375 246.578125 L 208.519531 246.796875 C 206.359375 247.871094 203.824219 247.871094 201.667969 246.796875 L 201.246094 246.578125 C 199.089844 245.519531 196.554688 245.519531 194.394531 246.578125 L 193.976562 246.796875 C 191.816406 247.871094 189.285156 247.871094 187.125 246.796875 L 186.703125 246.578125 C 184.546875 245.519531 182.027344 245.519531 179.867188 246.578125 L 179.449219 246.796875 C 177.289062 247.871094 174.753906 247.871094 172.597656 246.796875 L 172.175781 246.578125 C 170.019531 245.519531 167.484375 245.519531 165.324219 246.578125 L 164.90625 246.796875 C 162.746094 247.855469 160.210938 247.855469 158.070312 246.796875 L 157.632812 246.578125 C 155.476562 245.519531 152.957031 245.519531 150.785156 246.578125 L 150.378906 246.796875 C 148.203125 247.855469 145.683594 247.855469 143.527344 246.796875 L 143.105469 246.578125 C 140.949219 245.519531 138.414062 245.519531 136.253906 246.578125 L 135.835938 246.796875 C 133.675781 247.855469 131.140625 247.855469 128.984375 246.796875 L 128.5625 246.578125 C 127.507812 246.058594 126.332031 245.78125 125.160156 245.78125 Z M 125.175781 240.113281 C 123.988281 240.113281 122.8125 240.386719 121.742188 240.925781 L 121.320312 241.128906 C 119.164062 242.1875 116.628906 242.1875 114.46875 241.128906 L 114.050781 240.925781 C 113.296875 240.546875 112.5 240.300781 111.660156 240.183594 L 111.660156 242.011719 C 112.226562 242.113281 112.761719 242.289062 113.253906 242.535156 L 113.671875 242.75 C 116.339844 244.054688 119.46875 244.054688 122.117188 242.75 L 122.539062 242.535156 C 124.191406 241.722656 126.128906 241.722656 127.78125 242.535156 L 128.203125 242.75 C 130.867188 244.054688 133.996094 244.054688 136.644531 242.75 L 137.082031 242.535156 C 138.730469 241.722656 140.671875 241.722656 142.324219 242.535156 L 142.746094 242.75 C 145.394531 244.054688 148.523438 244.054688 151.1875 242.75 L 151.609375 242.535156 C 153.261719 241.722656 155.199219 241.722656 156.851562 242.535156 L 157.273438 242.75 C 159.9375 244.054688 163.050781 244.054688 165.71875 242.75 L 166.136719 242.535156 C 167.789062 241.722656 169.730469 241.722656 171.378906 242.535156 L 171.800781 242.75 C 174.464844 244.054688 177.59375 244.054688 180.257812 242.75 L 180.679688 242.535156 C 182.332031 241.722656 184.273438 241.722656 185.921875 242.535156 L 186.34375 242.75 C 188.992188 244.054688 192.121094 244.054688 194.789062 242.75 L 195.207031 242.535156 C 196.859375 241.722656 198.800781 241.722656 200.449219 242.535156 L 200.871094 242.75 C 203.535156 244.054688 206.648438 244.054688 209.316406 242.75 L 209.734375 242.535156 C 211.402344 241.722656 213.328125 241.722656 214.980469 242.535156 L 215.398438 242.75 C 218.0625 244.054688 221.179688 244.054688 223.84375 242.75 L 224.261719 242.535156 C 225.929688 241.722656 227.871094 241.722656 229.519531 242.535156 L 229.941406 242.75 C 232.59375 244.054688 235.722656 244.054688 238.371094 242.75 L 238.792969 242.535156 C 240.457031 241.722656 242.398438 241.722656 244.050781 242.535156 L 244.46875 242.75 C 246.453125 243.722656 248.726562 243.984375 250.886719 243.476562 L 250.886719 241.605469 C 249.019531 242.15625 247.019531 241.984375 245.265625 241.128906 L 244.847656 240.925781 C 242.6875 239.851562 240.167969 239.851562 238.007812 240.925781 L 237.589844 241.128906 C 235.429688 242.1875 232.894531 242.1875 230.738281 241.128906 L 230.304688 240.925781 C 228.160156 239.851562 225.625 239.851562 223.46875 240.925781 L 223.046875 241.128906 C 220.890625 242.1875 218.355469 242.1875 216.195312 241.128906 L 215.777344 240.925781 C 213.617188 239.851562 211.097656 239.851562 208.9375 240.925781 L 208.519531 241.128906 C 206.359375 242.1875 203.824219 242.1875 201.667969 241.128906 L 201.246094 240.925781 C 199.089844 239.851562 196.554688 239.851562 194.394531 240.925781 L 193.976562 241.128906 C 191.816406 242.1875 189.285156 242.1875 187.125 241.128906 L 186.703125 240.925781 C 184.546875 239.851562 182.027344 239.851562 179.867188 240.925781 L 179.449219 241.128906 C 177.289062 242.1875 174.753906 242.1875 172.597656 241.128906 L 172.175781 240.925781 C 170.019531 239.851562 167.484375 239.851562 165.324219 240.925781 L 164.90625 241.128906 C 162.746094 242.1875 160.210938 242.1875 158.070312 241.128906 L 157.632812 240.925781 C 155.476562 239.851562 152.957031 239.851562 150.785156 240.925781 L 150.378906 241.128906 C 148.203125 242.1875 145.683594 242.1875 143.527344 241.128906 L 143.105469 240.925781 C 140.949219 239.851562 138.414062 239.851562 136.253906 240.925781 L 135.835938 241.128906 C 133.675781 242.1875 131.140625 242.1875 128.984375 241.128906 L 128.5625 240.925781 C 127.507812 240.386719 126.332031 240.113281 125.160156 240.113281 Z M 128.316406 220.320312 C 127.765625 220.582031 127.203125 220.84375 126.636719 221.105469 L 126.636719 224.902344 C 127.203125 224.699219 127.765625 224.496094 128.316406 224.292969 Z M 130.824219 219.160156 C 130.15625 219.464844 129.503906 219.785156 128.839844 220.089844 L 128.839844 224.105469 C 129.503906 223.875 130.15625 223.640625 130.824219 223.410156 Z M 133.632812 217.886719 C 132.878906 218.234375 132.140625 218.566406 131.386719 218.898438 L 131.386719 223.207031 C 132.140625 222.945312 132.878906 222.683594 133.632812 222.421875 Z M 138.035156 215.914062 C 136.878906 216.421875 135.734375 216.941406 134.589844 217.449219 L 134.589844 222.105469 C 135.734375 221.714844 136.878906 221.320312 138.035156 220.945312 Z M 143.453125 213.519531 C 142.035156 214.144531 140.613281 214.769531 139.195312 215.390625 L 139.195312 220.554688 C 140.613281 220.089844 142.035156 219.625 143.453125 219.160156 Z M 151.085938 210.242188 C 149.03125 211.113281 146.972656 212 144.917969 212.882812 L 144.917969 218.683594 C 146.972656 218.03125 149.03125 217.390625 151.085938 216.769531 Z M 161.53125 205.921875 C 158.808594 207.023438 156.070312 208.15625 153.347656 209.285156 L 153.347656 216.085938 C 156.070312 215.273438 158.808594 214.476562 161.53125 213.710938 Z M 177.59375 199.644531 C 173.582031 201.152344 169.597656 202.703125 165.628906 204.285156 L 165.628906 212.578125 C 169.597656 211.503906 173.582031 210.476562 177.59375 209.488281 Z M 198.640625 192.0625 C 193.789062 193.730469 188.949219 195.441406 184.125 197.210938 L 184.125 207.925781 C 188.949219 206.808594 193.789062 205.75 198.640625 204.777344 Z M 243.789062 185.175781 C 244.339844 185.160156 244.800781 185.59375 244.816406 186.144531 C 244.816406 186.144531 244.816406 186.160156 244.816406 186.175781 C 244.816406 186.726562 244.367188 187.175781 243.816406 187.175781 C 243.253906 187.175781 242.816406 186.726562 242.816406 186.175781 C 242.804688 185.625 243.238281 185.1875 243.789062 185.175781 Z M 243.789062 184.246094 C 242.71875 184.234375 241.863281 185.085938 241.847656 186.160156 C 241.847656 186.871094 242.238281 187.539062 242.863281 187.871094 L 242.863281 189.074219 L 240.398438 189.074219 L 240.398438 190.046875 L 242.863281 190.046875 L 242.863281 196.6875 C 241.136719 196.441406 239.632812 195.398438 238.792969 193.859375 L 239.921875 193.859375 L 238.472656 191.929688 L 237.023438 193.859375 L 238.152344 193.859375 C 238.445312 196.296875 240.328125 198.222656 242.730469 198.601562 L 242.746094 198.601562 L 243.804688 199.675781 L 244.847656 198.601562 C 247.265625 198.222656 249.148438 196.296875 249.421875 193.859375 L 250.554688 193.859375 L 249.105469 191.929688 L 247.640625 193.859375 L 248.785156 193.859375 C 247.945312 195.398438 246.441406 196.441406 244.714844 196.6875 L 244.714844 190.046875 L 247.164062 190.046875 L 247.164062 189.074219 L 244.714844 189.074219 L 244.714844 187.871094 C 245.644531 187.363281 245.992188 186.191406 245.496094 185.261719 C 245.148438 184.636719 244.5 184.246094 243.804688 184.246094 Z M 270.832031 169.414062 C 273.597656 193.496094 266.050781 217.636719 250.0625 235.863281 L 113.28125 236.039062 L 111.980469 225.367188 C 159.515625 193.917969 214.082031 174.691406 270.832031 169.414062 Z M 218.195312 161.089844 C 217.660156 161.078125 217.109375 161.164062 216.585938 161.324219 C 188.558594 170.558594 162.328125 184.59375 139.09375 202.792969 C 164.703125 189.320312 191.617188 178.519531 219.425781 170.546875 C 221.976562 169.792969 223.453125 167.125 222.714844 164.570312 C 222.121094 162.554688 220.292969 161.148438 218.210938 161.089844 Z M 137.601562 158.453125 C 137.601562 158.453125 137.617188 158.453125 137.617188 158.453125 C 138.933594 158.4375 140.238281 158.714844 141.457031 159.234375 L 141.457031 170.734375 C 136.835938 175.359375 132.386719 180.15625 128.113281 185.117188 L 128.113281 167.382812 C 128.460938 162.382812 132.589844 158.480469 137.601562 158.453125 Z M 226.796875 154.4375 L 232.578125 170.71875 C 190.28125 181.507812 149.914062 198.804688 112.933594 222.015625 L 112.730469 221.4375 C 144.308594 189.582031 183.621094 166.5 226.796875 154.4375 Z M 204.246094 148.59375 C 203.914062 148.609375 203.566406 148.695312 203.261719 148.824219 C 179.609375 159.265625 157.867188 173.589844 138.949219 191.234375 C 159.429688 176.011719 181.75 163.46875 205.40625 153.886719 C 206.796875 153.304688 207.460938 151.695312 206.882812 150.289062 C 206.449219 149.246094 205.40625 148.5625 204.261719 148.59375 Z M 211.445312 141.519531 L 215.789062 153.742188 C 178.085938 167.617188 143.597656 188.972656 114.367188 216.535156 L 113.28125 213.59375 C 139.109375 181.347656 172.960938 156.480469 211.445312 141.519531 Z M 187.125 141.503906 C 186.804688 141.488281 186.472656 141.589844 186.199219 141.765625 C 177.492188 147.695312 169.105469 154.074219 161.082031 160.902344 C 169.640625 154.855469 178.550781 149.332031 187.777344 144.359375 C 188.515625 143.96875 188.789062 143.039062 188.398438 142.316406 C 188.152344 141.835938 187.660156 141.53125 187.125 141.503906 Z M 158.820312 137.589844 C 159.359375 137.589844 159.894531 137.632812 160.445312 137.691406 L 160.445312 153.4375 C 154.40625 158.425781 148.597656 163.6875 143.019531 169.183594 L 143.019531 151.855469 C 143.757812 143.707031 150.636719 137.488281 158.820312 137.589844 Z M 192.816406 133.136719 L 196.613281 143.835938 C 165.703125 159.25 138.253906 180.796875 115.917969 207.15625 L 114.964844 204.503906 C 136.398438 176.214844 162.777344 152.03125 192.816406 133.136719 Z M 177.78125 123.03125 C 178.363281 123.046875 178.941406 123.074219 179.507812 123.148438 L 179.507812 139.835938 C 173.597656 143.984375 167.832031 148.347656 162.242188 152.914062 L 162.242188 136.167969 C 163.5 128.554688 170.089844 123.003906 177.78125 123.046875 Z M 177.332031 121.234375 C 168.933594 121.40625 161.835938 127.554688 160.460938 135.878906 C 150.855469 134.863281 142.25 141.820312 141.253906 151.433594 C 141.035156 153.421875 141.164062 155.421875 141.628906 157.367188 C 135.75 155.175781 129.203125 158.175781 127.015625 164.0625 C 126.621094 165.109375 126.390625 166.210938 126.320312 167.328125 L 126.320312 187.667969 C 121.65625 193.019531 117.195312 198.527344 112.921875 204.210938 L 114.6875 209.027344 C 113.515625 210.433594 112.371094 211.839844 111.242188 213.273438 L 113.152344 218.464844 C 112.296875 219.292969 111.472656 220.148438 110.648438 220.988281 L 111.542969 223.480469 C 111.050781 223.816406 110.546875 224.148438 110.039062 224.46875 L 111.675781 237.851562 L 250.871094 237.660156 C 267.976562 218.539062 275.84375 192.875 272.394531 167.457031 C 259.910156 168.558594 247.511719 170.328125 235.214844 172.761719 L 227.941406 152.261719 C 224.667969 153.144531 221.410156 154.101562 218.179688 155.117188 L 212.53125 139.167969 C 207.925781 140.910156 203.363281 142.808594 198.871094 144.839844 L 193.757812 130.425781 C 189.542969 133.035156 185.386719 135.746094 181.300781 138.574219 L 181.300781 121.609375 C 180 121.335938 178.667969 121.203125 177.332031 121.234375 " fill-opacity="1" fill-rule="nonzero"/></g><g fill="#03989e" fill-opacity="0.302"><g transform="translate(93.555795, 278.21049)"><g><path d="M 11.859375 0.34375 C 7.984375 0.34375 5.128906 -0.457031 3.296875 -2.0625 C 1.679688 -3.46875 0.875 -5.390625 0.875 -7.828125 C 0.875 -10.265625 1.679688 -12.191406 3.296875 -13.609375 C 5.128906 -15.203125 7.984375 -16 11.859375 -16 C 14.128906 -16 16.007812 -15.738281 17.5 -15.21875 C 18.988281 -14.695312 20.144531 -13.984375 20.96875 -13.078125 C 21.789062 -12.171875 22.335938 -11.132812 22.609375 -9.96875 L 15.6875 -9.96875 C 15 -11.1875 13.722656 -11.796875 11.859375 -11.796875 C 10.273438 -11.796875 9.109375 -11.335938 8.359375 -10.421875 C 7.753906 -9.691406 7.453125 -8.828125 7.453125 -7.828125 C 7.453125 -6.828125 7.753906 -5.960938 8.359375 -5.234375 C 9.109375 -4.316406 10.273438 -3.859375 11.859375 -3.859375 C 13.722656 -3.859375 15 -4.472656 15.6875 -5.703125 L 22.609375 -5.703125 C 22.335938 -4.523438 21.789062 -3.484375 20.96875 -2.578125 C 20.144531 -1.671875 18.988281 -0.957031 17.5 -0.4375 C 16.007812 0.0820312 14.128906 0.34375 11.859375 0.34375 Z M 11.859375 0.34375 "/></g></g></g><g fill="#03989e" fill-opacity="0.302"><g transform="translate(117.031516, 278.21049)"><g><path d="M 11.859375 0.34375 C 7.984375 0.34375 5.128906 -0.457031 3.296875 -2.0625 C 1.679688 -3.46875 0.875 -5.394531 0.875 -7.84375 C 0.875 -10.269531 1.679688 -12.191406 3.296875 -13.609375 C 5.128906 -15.203125 7.984375 -16 11.859375 -16 C 15.734375 -16 18.585938 -15.203125 20.421875 -13.609375 C 22.035156 -12.191406 22.84375 -10.269531 22.84375 -7.84375 C 22.84375 -5.394531 22.035156 -3.46875 20.421875 -2.0625 C 18.585938 -0.457031 15.734375 0.34375 11.859375 0.34375 Z M 11.859375 -3.875 C 13.453125 -3.875 14.617188 -4.328125 15.359375 -5.234375 C 15.953125 -5.972656 16.25 -6.84375 16.25 -7.84375 C 16.25 -8.84375 15.953125 -9.707031 15.359375 -10.4375 C 14.617188 -11.351562 13.453125 -11.8125 11.859375 -11.8125 C 10.273438 -11.8125 9.109375 -11.351562 8.359375 -10.4375 C 7.753906 -9.707031 7.453125 -8.84375 7.453125 -7.84375 C 7.453125 -6.84375 7.753906 -5.972656 8.359375 -5.234375 C 9.109375 -4.328125 10.273438 -3.875 11.859375 -3.875 Z M 11.859375 -3.875 "/></g></g></g><g fill="#03989e" fill-opacity="0.302"><g transform="translate(140.747679, 278.21049)"><g><path d="M 11.03125 0.34375 C 7.207031 0.34375 4.515625 -0.453125 2.953125 -2.046875 C 1.640625 -3.378906 0.984375 -5.304688 0.984375 -7.828125 L 0.984375 -15.671875 L 7.5625 -15.671875 L 7.5625 -7.828125 C 7.5625 -6.734375 7.75 -5.867188 8.125 -5.234375 C 8.65625 -4.328125 9.625 -3.875 11.03125 -3.875 C 12.445312 -3.875 13.421875 -4.328125 13.953125 -5.234375 C 14.328125 -5.890625 14.515625 -6.753906 14.515625 -7.828125 L 14.515625 -15.671875 L 21.09375 -15.671875 L 21.09375 -7.734375 C 21.09375 -5.273438 20.4375 -3.378906 19.125 -2.046875 C 17.5625 -0.453125 14.863281 0.34375 11.03125 0.34375 Z M 11.03125 0.34375 "/></g></g></g><g fill="#03989e" fill-opacity="0.302"><g transform="translate(162.813546, 278.21049)"><g><path d="M 25.03125 0 L 17.203125 0 L 8.328125 -10.609375 L 8.328125 0 L 1.75 0 L 1.75 -15.6875 L 9.578125 -15.6875 L 18.4375 -5.125 L 18.4375 -15.6875 L 25.03125 -15.6875 Z M 25.03125 0 "/></g></g></g><g fill="#03989e" fill-opacity="0.302"><g transform="translate(189.578929, 278.21049)"><g><path d="M 13.375 0 L 6.796875 0 L 6.796875 -11.8125 L 0.65625 -11.8125 L 0.65625 -15.6875 L 19.53125 -15.6875 L 19.53125 -11.8125 L 13.375 -11.8125 Z M 13.375 0 "/></g></g></g><g fill="#03989e" fill-opacity="0.302"><g transform="translate(209.754061, 278.21049)"><g><path d="M 8.328125 0 L 1.75 0 L 1.75 -15.6875 L 8.328125 -15.6875 Z M 8.328125 0 "/></g></g></g><g fill="#03989e" fill-opacity="0.302"><g transform="translate(219.830697, 278.21049)"><g><path d="M 25.03125 0 L 17.203125 0 L 8.328125 -10.609375 L 8.328125 0 L 1.75 0 L 1.75 -15.6875 L 9.578125 -15.6875 L 18.4375 -5.125 L 18.4375 -15.6875 L 25.03125 -15.6875 Z M 25.03125 0 "/></g></g></g><g fill="#03989e" fill-opacity="0.302"><g transform="translate(246.59608, 278.21049)"><g><path d="M 11.859375 0.34375 C 7.984375 0.34375 5.128906 -0.457031 3.296875 -2.0625 C 1.679688 -3.46875 0.875 -5.390625 0.875 -7.828125 C 0.875 -10.265625 1.679688 -12.191406 3.296875 -13.609375 C 5.128906 -15.203125 7.984375 -16 11.859375 -16 C 14.066406 -16 15.898438 -15.75 17.359375 -15.25 C 18.828125 -14.757812 19.976562 -14.085938 20.8125 -13.234375 C 21.65625 -12.378906 22.226562 -11.394531 22.53125 -10.28125 L 15.484375 -10.28125 C 14.753906 -11.289062 13.546875 -11.796875 11.859375 -11.796875 C 10.273438 -11.796875 9.109375 -11.34375 8.359375 -10.4375 C 7.753906 -9.695312 7.453125 -8.828125 7.453125 -7.828125 C 7.453125 -6.828125 7.753906 -5.960938 8.359375 -5.234375 C 9.109375 -4.328125 10.273438 -3.875 11.859375 -3.875 C 13.140625 -3.875 14.101562 -3.984375 14.75 -4.203125 C 15.394531 -4.421875 15.867188 -4.710938 16.171875 -5.078125 L 13.59375 -5.078125 L 13.59375 -7.828125 L 22.53125 -7.828125 L 22.53125 0.015625 L 19.796875 0.015625 L 19.234375 -1.515625 C 17.492188 -0.273438 15.035156 0.34375 11.859375 0.34375 Z M 11.859375 0.34375 "/></g></g></g><g fill="#03989e" fill-opacity="0.502"><g transform="translate(94.920178, 276.399913)"><g><path d="M 11.859375 0.34375 C 7.984375 0.34375 5.128906 -0.457031 3.296875 -2.0625 C 1.679688 -3.46875 0.875 -5.390625 0.875 -7.828125 C 0.875 -10.265625 1.679688 -12.191406 3.296875 -13.609375 C 5.128906 -15.203125 7.984375 -16 11.859375 -16 C 14.128906 -16 16.007812 -15.738281 17.5 -15.21875 C 18.988281 -14.695312 20.144531 -13.984375 20.96875 -13.078125 C 21.789062 -12.171875 22.335938 -11.132812 22.609375 -9.96875 L 15.6875 -9.96875 C 15 -11.1875 13.722656 -11.796875 11.859375 -11.796875 C 10.273438 -11.796875 9.109375 -11.335938 8.359375 -10.421875 C 7.753906 -9.691406 7.453125 -8.828125 7.453125 -7.828125 C 7.453125 -6.828125 7.753906 -5.960938 8.359375 -5.234375 C 9.109375 -4.316406 10.273438 -3.859375 11.859375 -3.859375 C 13.722656 -3.859375 15 -4.472656 15.6875 -5.703125 L 22.609375 -5.703125 C 22.335938 -4.523438 21.789062 -3.484375 20.96875 -2.578125 C 20.144531 -1.671875 18.988281 -0.957031 17.5 -0.4375 C 16.007812 0.0820312 14.128906 0.34375 11.859375 0.34375 Z M 11.859375 0.34375 "/></g></g></g><g fill="#03989e" fill-opacity="0.502"><g transform="translate(118.395899, 276.399913)"><g><path d="M 11.859375 0.34375 C 7.984375 0.34375 5.128906 -0.457031 3.296875 -2.0625 C 1.679688 -3.46875 0.875 -5.394531 0.875 -7.84375 C 0.875 -10.269531 1.679688 -12.191406 3.296875 -13.609375 C 5.128906 -15.203125 7.984375 -16 11.859375 -16 C 15.734375 -16 18.585938 -15.203125 20.421875 -13.609375 C 22.035156 -12.191406 22.84375 -10.269531 22.84375 -7.84375 C 22.84375 -5.394531 22.035156 -3.46875 20.421875 -2.0625 C 18.585938 -0.457031 15.734375 0.34375 11.859375 0.34375 Z M 11.859375 -3.875 C 13.453125 -3.875 14.617188 -4.328125 15.359375 -5.234375 C 15.953125 -5.972656 16.25 -6.84375 16.25 -7.84375 C 16.25 -8.84375 15.953125 -9.707031 15.359375 -10.4375 C 14.617188 -11.351562 13.453125 -11.8125 11.859375 -11.8125 C 10.273438 -11.8125 9.109375 -11.351562 8.359375 -10.4375 C 7.753906 -9.707031 7.453125 -8.84375 7.453125 -7.84375 C 7.453125 -6.84375 7.753906 -5.972656 8.359375 -5.234375 C 9.109375 -4.328125 10.273438 -3.875 11.859375 -3.875 Z M 11.859375 -3.875 "/></g></g></g><g fill="#03989e" fill-opacity="0.502"><g transform="translate(142.112062, 276.399913)"><g><path d="M 11.03125 0.34375 C 7.207031 0.34375 4.515625 -0.453125 2.953125 -2.046875 C 1.640625 -3.378906 0.984375 -5.304688 0.984375 -7.828125 L 0.984375 -15.671875 L 7.5625 -15.671875 L 7.5625 -7.828125 C 7.5625 -6.734375 7.75 -5.867188 8.125 -5.234375 C 8.65625 -4.328125 9.625 -3.875 11.03125 -3.875 C 12.445312 -3.875 13.421875 -4.328125 13.953125 -5.234375 C 14.328125 -5.890625 14.515625 -6.753906 14.515625 -7.828125 L 14.515625 -15.671875 L 21.09375 -15.671875 L 21.09375 -7.734375 C 21.09375 -5.273438 20.4375 -3.378906 19.125 -2.046875 C 17.5625 -0.453125 14.863281 0.34375 11.03125 0.34375 Z M 11.03125 0.34375 "/></g></g></g><g fill="#03989e" fill-opacity="0.502"><g transform="translate(164.177929, 276.399913)"><g><path d="M 25.03125 0 L 17.203125 0 L 8.328125 -10.609375 L 8.328125 0 L 1.75 0 L 1.75 -15.6875 L 9.578125 -15.6875 L 18.4375 -5.125 L 18.4375 -15.6875 L 25.03125 -15.6875 Z M 25.03125 0 "/></g></g></g><g fill="#03989e" fill-opacity="0.502"><g transform="translate(190.943312, 276.399913)"><g><path d="M 13.375 0 L 6.796875 0 L 6.796875 -11.8125 L 0.65625 -11.8125 L 0.65625 -15.6875 L 19.53125 -15.6875 L 19.53125 -11.8125 L 13.375 -11.8125 Z M 13.375 0 "/></g></g></g><g fill="#03989e" fill-opacity="0.502"><g transform="translate(211.118443, 276.399913)"><g><path d="M 8.328125 0 L 1.75 0 L 1.75 -15.6875 L 8.328125 -15.6875 Z M 8.328125 0 "/></g></g></g><g fill="#03989e" fill-opacity="0.502"><g transform="translate(221.19508, 276.399913)"><g><path d="M 25.03125 0 L 17.203125 0 L 8.328125 -10.609375 L 8.328125 0 L 1.75 0 L 1.75 -15.6875 L 9.578125 -15.6875 L 18.4375 -5.125 L 18.4375 -15.6875 L 25.03125 -15.6875 Z M 25.03125 0 "/></g></g></g><g fill="#03989e" fill-opacity="0.502"><g transform="translate(247.960463, 276.399913)"><g><path d="M 11.859375 0.34375 C 7.984375 0.34375 5.128906 -0.457031 3.296875 -2.0625 C 1.679688 -3.46875 0.875 -5.390625 0.875 -7.828125 C 0.875 -10.265625 1.679688 -12.191406 3.296875 -13.609375 C 5.128906 -15.203125 7.984375 -16 11.859375 -16 C 14.066406 -16 15.898438 -15.75 17.359375 -15.25 C 18.828125 -14.757812 19.976562 -14.085938 20.8125 -13.234375 C 21.65625 -12.378906 22.226562 -11.394531 22.53125 -10.28125 L 15.484375 -10.28125 C 14.753906 -11.289062 13.546875 -11.796875 11.859375 -11.796875 C 10.273438 -11.796875 9.109375 -11.34375 8.359375 -10.4375 C 7.753906 -9.695312 7.453125 -8.828125 7.453125 -7.828125 C 7.453125 -6.828125 7.753906 -5.960938 8.359375 -5.234375 C 9.109375 -4.328125 10.273438 -3.875 11.859375 -3.875 C 13.140625 -3.875 14.101562 -3.984375 14.75 -4.203125 C 15.394531 -4.421875 15.867188 -4.710938 16.171875 -5.078125 L 13.59375 -5.078125 L 13.59375 -7.828125 L 22.53125 -7.828125 L 22.53125 0.015625 L 19.796875 0.015625 L 19.234375 -1.515625 C 17.492188 -0.273438 15.035156 0.34375 11.859375 0.34375 Z M 11.859375 0.34375 "/></g></g></g><g fill="#b3e0e2" fill-opacity="1"><g transform="translate(96.284561, 274.589308)"><g><path d="M 11.859375 0.34375 C 7.984375 0.34375 5.128906 -0.457031 3.296875 -2.0625 C 1.679688 -3.46875 0.875 -5.390625 0.875 -7.828125 C 0.875 -10.265625 1.679688 -12.191406 3.296875 -13.609375 C 5.128906 -15.203125 7.984375 -16 11.859375 -16 C 14.128906 -16 16.007812 -15.738281 17.5 -15.21875 C 18.988281 -14.695312 20.144531 -13.984375 20.96875 -13.078125 C 21.789062 -12.171875 22.335938 -11.132812 22.609375 -9.96875 L 15.6875 -9.96875 C 15 -11.1875 13.722656 -11.796875 11.859375 -11.796875 C 10.273438 -11.796875 9.109375 -11.335938 8.359375 -10.421875 C 7.753906 -9.691406 7.453125 -8.828125 7.453125 -7.828125 C 7.453125 -6.828125 7.753906 -5.960938 8.359375 -5.234375 C 9.109375 -4.316406 10.273438 -3.859375 11.859375 -3.859375 C 13.722656 -3.859375 15 -4.472656 15.6875 -5.703125 L 22.609375 -5.703125 C 22.335938 -4.523438 21.789062 -3.484375 20.96875 -2.578125 C 20.144531 -1.671875 18.988281 -0.957031 17.5 -0.4375 C 16.007812 0.0820312 14.128906 0.34375 11.859375 0.34375 Z M 11.859375 0.34375 "/></g></g></g><g fill="#b3e0e2" fill-opacity="1"><g transform="translate(119.760282, 274.589308)"><g><path d="M 11.859375 0.34375 C 7.984375 0.34375 5.128906 -0.457031 3.296875 -2.0625 C 1.679688 -3.46875 0.875 -5.394531 0.875 -7.84375 C 0.875 -10.269531 1.679688 -12.191406 3.296875 -13.609375 C 5.128906 -15.203125 7.984375 -16 11.859375 -16 C 15.734375 -16 18.585938 -15.203125 20.421875 -13.609375 C 22.035156 -12.191406 22.84375 -10.269531 22.84375 -7.84375 C 22.84375 -5.394531 22.035156 -3.46875 20.421875 -2.0625 C 18.585938 -0.457031 15.734375 0.34375 11.859375 0.34375 Z M 11.859375 -3.875 C 13.453125 -3.875 14.617188 -4.328125 15.359375 -5.234375 C 15.953125 -5.972656 16.25 -6.84375 16.25 -7.84375 C 16.25 -8.84375 15.953125 -9.707031 15.359375 -10.4375 C 14.617188 -11.351562 13.453125 -11.8125 11.859375 -11.8125 C 10.273438 -11.8125 9.109375 -11.351562 8.359375 -10.4375 C 7.753906 -9.707031 7.453125 -8.84375 7.453125 -7.84375 C 7.453125 -6.84375 7.753906 -5.972656 8.359375 -5.234375 C 9.109375 -4.328125 10.273438 -3.875 11.859375 -3.875 Z M 11.859375 -3.875 "/></g></g></g><g fill="#b3e0e2" fill-opacity="1"><g transform="translate(143.476445, 274.589308)"><g><path d="M 11.03125 0.34375 C 7.207031 0.34375 4.515625 -0.453125 2.953125 -2.046875 C 1.640625 -3.378906 0.984375 -5.304688 0.984375 -7.828125 L 0.984375 -15.671875 L 7.5625 -15.671875 L 7.5625 -7.828125 C 7.5625 -6.734375 7.75 -5.867188 8.125 -5.234375 C 8.65625 -4.328125 9.625 -3.875 11.03125 -3.875 C 12.445312 -3.875 13.421875 -4.328125 13.953125 -5.234375 C 14.328125 -5.890625 14.515625 -6.753906 14.515625 -7.828125 L 14.515625 -15.671875 L 21.09375 -15.671875 L 21.09375 -7.734375 C 21.09375 -5.273438 20.4375 -3.378906 19.125 -2.046875 C 17.5625 -0.453125 14.863281 0.34375 11.03125 0.34375 Z M 11.03125 0.34375 "/></g></g></g><g fill="#b3e0e2" fill-opacity="1"><g transform="translate(165.542312, 274.589308)"><g><path d="M 25.03125 0 L 17.203125 0 L 8.328125 -10.609375 L 8.328125 0 L 1.75 0 L 1.75 -15.6875 L 9.578125 -15.6875 L 18.4375 -5.125 L 18.4375 -15.6875 L 25.03125 -15.6875 Z M 25.03125 0 "/></g></g></g><g fill="#b3e0e2" fill-opacity="1"><g transform="translate(192.307695, 274.589308)"><g><path d="M 13.375 0 L 6.796875 0 L 6.796875 -11.8125 L 0.65625 -11.8125 L 0.65625 -15.6875 L 19.53125 -15.6875 L 19.53125 -11.8125 L 13.375 -11.8125 Z M 13.375 0 "/></g></g></g><g fill="#b3e0e2" fill-opacity="1"><g transform="translate(212.482826, 274.589308)"><g><path d="M 8.328125 0 L 1.75 0 L 1.75 -15.6875 L 8.328125 -15.6875 Z M 8.328125 0 "/></g></g></g><g fill="#b3e0e2" fill-opacity="1"><g transform="translate(222.559463, 274.589308)"><g><path d="M 25.03125 0 L 17.203125 0 L 8.328125 -10.609375 L 8.328125 0 L 1.75 0 L 1.75 -15.6875 L 9.578125 -15.6875 L 18.4375 -5.125 L 18.4375 -15.6875 L 25.03125 -15.6875 Z M 25.03125 0 "/></g></g></g><g fill="#b3e0e2" fill-opacity="1"><g transform="translate(249.324846, 274.589308)"><g><path d="M 11.859375 0.34375 C 7.984375 0.34375 5.128906 -0.457031 3.296875 -2.0625 C 1.679688 -3.46875 0.875 -5.390625 0.875 -7.828125 C 0.875 -10.265625 1.679688 -12.191406 3.296875 -13.609375 C 5.128906 -15.203125 7.984375 -16 11.859375 -16 C 14.066406 -16 15.898438 -15.75 17.359375 -15.25 C 18.828125 -14.757812 19.976562 -14.085938 20.8125 -13.234375 C 21.65625 -12.378906 22.226562 -11.394531 22.53125 -10.28125 L 15.484375 -10.28125 C 14.753906 -11.289062 13.546875 -11.796875 11.859375 -11.796875 C 10.273438 -11.796875 9.109375 -11.34375 8.359375 -10.4375 C 7.753906 -9.695312 7.453125 -8.828125 7.453125 -7.828125 C 7.453125 -6.828125 7.753906 -5.960938 8.359375 -5.234375 C 9.109375 -4.328125 10.273438 -3.875 11.859375 -3.875 C 13.140625 -3.875 14.101562 -3.984375 14.75 -4.203125 C 15.394531 -4.421875 15.867188 -4.710938 16.171875 -5.078125 L 13.59375 -5.078125 L 13.59375 -7.828125 L 22.53125 -7.828125 L 22.53125 0.015625 L 19.796875 0.015625 L 19.234375 -1.515625 C 17.492188 -0.273438 15.035156 0.34375 11.859375 0.34375 Z M 11.859375 0.34375 "/></g></g></g><g fill="#03989e" fill-opacity="0.302"><g transform="translate(270.426881, 278.21049)"><g/></g></g><g fill="#03989e" fill-opacity="0.502"><g transform="translate(271.791264, 276.399913)"><g/></g></g><g fill="#b3e0e2" fill-opacity="1"><g transform="translate(273.155647, 274.589308)"><g/></g></g><g fill="#03989e" fill-opacity="0.302"><g transform="translate(123.813605, 308.960488)"><g><path d="M 11.859375 0.34375 C 7.984375 0.34375 5.128906 -0.457031 3.296875 -2.0625 C 1.679688 -3.46875 0.875 -5.390625 0.875 -7.828125 C 0.875 -10.265625 1.679688 -12.191406 3.296875 -13.609375 C 5.128906 -15.203125 7.984375 -16 11.859375 -16 C 14.128906 -16 16.007812 -15.738281 17.5 -15.21875 C 18.988281 -14.695312 20.144531 -13.984375 20.96875 -13.078125 C 21.789062 -12.171875 22.335938 -11.132812 22.609375 -9.96875 L 15.6875 -9.96875 C 15 -11.1875 13.722656 -11.796875 11.859375 -11.796875 C 10.273438 -11.796875 9.109375 -11.335938 8.359375 -10.421875 C 7.753906 -9.691406 7.453125 -8.828125 7.453125 -7.828125 C 7.453125 -6.828125 7.753906 -5.960938 8.359375 -5.234375 C 9.109375 -4.316406 10.273438 -3.859375 11.859375 -3.859375 C 13.722656 -3.859375 15 -4.472656 15.6875 -5.703125 L 22.609375 -5.703125 C 22.335938 -4.523438 21.789062 -3.484375 20.96875 -2.578125 C 20.144531 -1.671875 18.988281 -0.957031 17.5 -0.4375 C 16.007812 0.0820312 14.128906 0.34375 11.859375 0.34375 Z M 11.859375 0.34375 "/></g></g></g><g fill="#03989e" fill-opacity="0.302"><g transform="translate(147.289327, 308.960488)"><g><path d="M 23.171875 0 L 16.953125 0 C 16.660156 -0.394531 16.457031 -0.898438 16.34375 -1.515625 C 16.238281 -1.984375 16.082031 -2.445312 15.875 -2.90625 C 15.675781 -3.363281 15.328125 -3.742188 14.828125 -4.046875 C 14.328125 -4.347656 13.585938 -4.507812 12.609375 -4.53125 L 8.328125 -4.53125 L 8.328125 0 L 1.75 0 L 1.75 -15.6875 L 12.453125 -15.6875 C 15.015625 -15.6875 17.078125 -15.492188 18.640625 -15.109375 C 20.210938 -14.734375 21.359375 -14.132812 22.078125 -13.3125 C 22.804688 -12.488281 23.171875 -11.421875 23.171875 -10.109375 C 23.171875 -9.003906 22.921875 -8.078125 22.421875 -7.328125 C 21.921875 -6.578125 21.128906 -5.984375 20.046875 -5.546875 C 21.085938 -5.109375 21.765625 -4.585938 22.078125 -3.984375 C 22.390625 -3.390625 22.582031 -2.734375 22.65625 -2.015625 C 22.726562 -1.367188 22.898438 -0.695312 23.171875 0 Z M 8.328125 -8.390625 L 12.09375 -8.40625 C 13.144531 -8.40625 13.972656 -8.453125 14.578125 -8.546875 C 15.179688 -8.640625 15.625 -8.769531 15.90625 -8.9375 C 16.195312 -9.101562 16.378906 -9.285156 16.453125 -9.484375 C 16.535156 -9.679688 16.578125 -9.890625 16.578125 -10.109375 C 16.578125 -10.316406 16.535156 -10.519531 16.453125 -10.71875 C 16.378906 -10.925781 16.195312 -11.109375 15.90625 -11.265625 C 15.625 -11.429688 15.179688 -11.5625 14.578125 -11.65625 C 13.972656 -11.757812 13.144531 -11.8125 12.09375 -11.8125 L 8.328125 -11.8125 Z M 8.328125 -8.390625 "/></g></g></g><g fill="#03989e" fill-opacity="0.302"><g transform="translate(171.322433, 308.960488)"><g><path d="M 11.03125 0.34375 C 7.207031 0.34375 4.515625 -0.453125 2.953125 -2.046875 C 1.640625 -3.378906 0.984375 -5.304688 0.984375 -7.828125 L 0.984375 -15.671875 L 7.5625 -15.671875 L 7.5625 -7.828125 C 7.5625 -6.734375 7.75 -5.867188 8.125 -5.234375 C 8.65625 -4.328125 9.625 -3.875 11.03125 -3.875 C 12.445312 -3.875 13.421875 -4.328125 13.953125 -5.234375 C 14.328125 -5.890625 14.515625 -6.753906 14.515625 -7.828125 L 14.515625 -15.671875 L 21.09375 -15.671875 L 21.09375 -7.734375 C 21.09375 -5.273438 20.4375 -3.378906 19.125 -2.046875 C 17.5625 -0.453125 14.863281 0.34375 11.03125 0.34375 Z M 11.03125 0.34375 "/></g></g></g><g fill="#03989e" fill-opacity="0.302"><g transform="translate(193.3883, 308.960488)"><g><path d="M 8.328125 0 L 1.75 0 L 1.75 -15.6875 L 8.328125 -15.6875 Z M 8.328125 0 "/></g></g></g><g fill="#03989e" fill-opacity="0.302"><g transform="translate(203.464937, 308.960488)"><g><path d="M 10.359375 0.34375 C 8.242188 0.34375 6.535156 0.113281 5.234375 -0.34375 C 3.941406 -0.800781 2.953125 -1.425781 2.265625 -2.21875 C 1.585938 -3.019531 1.132812 -3.941406 0.90625 -4.984375 L 7.890625 -4.984375 C 8.410156 -4.242188 9.234375 -3.875 10.359375 -3.875 C 11.492188 -3.875 12.316406 -4.242188 12.828125 -4.984375 C 12.878906 -5.054688 12.90625 -5.125 12.90625 -5.1875 C 12.90625 -5.382812 12.644531 -5.53125 12.125 -5.625 C 11.601562 -5.71875 10.820312 -5.789062 9.78125 -5.84375 C 8.476562 -5.90625 7.109375 -6.046875 5.671875 -6.265625 C 2.472656 -6.765625 0.875 -8.050781 0.875 -10.125 C 0.875 -10.300781 0.882812 -10.488281 0.90625 -10.6875 C 1.132812 -11.726562 1.585938 -12.644531 2.265625 -13.4375 C 2.953125 -14.238281 3.941406 -14.863281 5.234375 -15.3125 C 6.535156 -15.769531 8.242188 -16 10.359375 -16 C 12.484375 -16 14.191406 -15.769531 15.484375 -15.3125 C 16.785156 -14.863281 17.773438 -14.238281 18.453125 -13.4375 C 19.128906 -12.644531 19.585938 -11.726562 19.828125 -10.6875 L 12.828125 -10.6875 C 12.316406 -11.425781 11.492188 -11.796875 10.359375 -11.796875 C 9.234375 -11.796875 8.410156 -11.425781 7.890625 -10.6875 C 7.859375 -10.625 7.84375 -10.566406 7.84375 -10.515625 C 7.84375 -10.335938 8.09375 -10.207031 8.59375 -10.125 C 9.09375 -10.039062 9.828125 -9.96875 10.796875 -9.90625 C 11.765625 -9.851562 12.800781 -9.757812 13.90625 -9.625 C 15.007812 -9.5 16.039062 -9.273438 17 -8.953125 C 17.957031 -8.628906 18.703125 -8.148438 19.234375 -7.515625 C 19.660156 -7.023438 19.875 -6.40625 19.875 -5.65625 C 19.875 -5.4375 19.859375 -5.210938 19.828125 -4.984375 C 19.585938 -3.941406 19.128906 -3.019531 18.453125 -2.21875 C 17.773438 -1.425781 16.785156 -0.800781 15.484375 -0.34375 C 14.191406 0.113281 12.484375 0.34375 10.359375 0.34375 Z M 10.359375 0.34375 "/></g></g></g><g fill="#03989e" fill-opacity="0.302"><g transform="translate(224.208382, 308.960488)"><g><path d="M 20.640625 0 L 1.75 0 L 1.75 -15.6875 L 19.78125 -15.6875 L 19.78125 -11.8125 L 8.328125 -11.8125 L 8.328125 -9.34375 L 18 -9.34375 L 18 -6.328125 L 8.328125 -6.328125 L 8.328125 -3.875 L 20.640625 -3.875 Z M 20.640625 0 "/></g></g></g><g fill="#03989e" fill-opacity="0.502"><g transform="translate(125.177988, 307.149911)"><g><path d="M 11.859375 0.34375 C 7.984375 0.34375 5.128906 -0.457031 3.296875 -2.0625 C 1.679688 -3.46875 0.875 -5.390625 0.875 -7.828125 C 0.875 -10.265625 1.679688 -12.191406 3.296875 -13.609375 C 5.128906 -15.203125 7.984375 -16 11.859375 -16 C 14.128906 -16 16.007812 -15.738281 17.5 -15.21875 C 18.988281 -14.695312 20.144531 -13.984375 20.96875 -13.078125 C 21.789062 -12.171875 22.335938 -11.132812 22.609375 -9.96875 L 15.6875 -9.96875 C 15 -11.1875 13.722656 -11.796875 11.859375 -11.796875 C 10.273438 -11.796875 9.109375 -11.335938 8.359375 -10.421875 C 7.753906 -9.691406 7.453125 -8.828125 7.453125 -7.828125 C 7.453125 -6.828125 7.753906 -5.960938 8.359375 -5.234375 C 9.109375 -4.316406 10.273438 -3.859375 11.859375 -3.859375 C 13.722656 -3.859375 15 -4.472656 15.6875 -5.703125 L 22.609375 -5.703125 C 22.335938 -4.523438 21.789062 -3.484375 20.96875 -2.578125 C 20.144531 -1.671875 18.988281 -0.957031 17.5 -0.4375 C 16.007812 0.0820312 14.128906 0.34375 11.859375 0.34375 Z M 11.859375 0.34375 "/></g></g></g><g fill="#03989e" fill-opacity="0.502"><g transform="translate(148.65371, 307.149911)"><g><path d="M 23.171875 0 L 16.953125 0 C 16.660156 -0.394531 16.457031 -0.898438 16.34375 -1.515625 C 16.238281 -1.984375 16.082031 -2.445312 15.875 -2.90625 C 15.675781 -3.363281 15.328125 -3.742188 14.828125 -4.046875 C 14.328125 -4.347656 13.585938 -4.507812 12.609375 -4.53125 L 8.328125 -4.53125 L 8.328125 0 L 1.75 0 L 1.75 -15.6875 L 12.453125 -15.6875 C 15.015625 -15.6875 17.078125 -15.492188 18.640625 -15.109375 C 20.210938 -14.734375 21.359375 -14.132812 22.078125 -13.3125 C 22.804688 -12.488281 23.171875 -11.421875 23.171875 -10.109375 C 23.171875 -9.003906 22.921875 -8.078125 22.421875 -7.328125 C 21.921875 -6.578125 21.128906 -5.984375 20.046875 -5.546875 C 21.085938 -5.109375 21.765625 -4.585938 22.078125 -3.984375 C 22.390625 -3.390625 22.582031 -2.734375 22.65625 -2.015625 C 22.726562 -1.367188 22.898438 -0.695312 23.171875 0 Z M 8.328125 -8.390625 L 12.09375 -8.40625 C 13.144531 -8.40625 13.972656 -8.453125 14.578125 -8.546875 C 15.179688 -8.640625 15.625 -8.769531 15.90625 -8.9375 C 16.195312 -9.101562 16.378906 -9.285156 16.453125 -9.484375 C 16.535156 -9.679688 16.578125 -9.890625 16.578125 -10.109375 C 16.578125 -10.316406 16.535156 -10.519531 16.453125 -10.71875 C 16.378906 -10.925781 16.195312 -11.109375 15.90625 -11.265625 C 15.625 -11.429688 15.179688 -11.5625 14.578125 -11.65625 C 13.972656 -11.757812 13.144531 -11.8125 12.09375 -11.8125 L 8.328125 -11.8125 Z M 8.328125 -8.390625 "/></g></g></g><g fill="#03989e" fill-opacity="0.502"><g transform="translate(172.686816, 307.149911)"><g><path d="M 11.03125 0.34375 C 7.207031 0.34375 4.515625 -0.453125 2.953125 -2.046875 C 1.640625 -3.378906 0.984375 -5.304688 0.984375 -7.828125 L 0.984375 -15.671875 L 7.5625 -15.671875 L 7.5625 -7.828125 C 7.5625 -6.734375 7.75 -5.867188 8.125 -5.234375 C 8.65625 -4.328125 9.625 -3.875 11.03125 -3.875 C 12.445312 -3.875 13.421875 -4.328125 13.953125 -5.234375 C 14.328125 -5.890625 14.515625 -6.753906 14.515625 -7.828125 L 14.515625 -15.671875 L 21.09375 -15.671875 L 21.09375 -7.734375 C 21.09375 -5.273438 20.4375 -3.378906 19.125 -2.046875 C 17.5625 -0.453125 14.863281 0.34375 11.03125 0.34375 Z M 11.03125 0.34375 "/></g></g></g><g fill="#03989e" fill-opacity="0.502"><g transform="translate(194.752683, 307.149911)"><g><path d="M 8.328125 0 L 1.75 0 L 1.75 -15.6875 L 8.328125 -15.6875 Z M 8.328125 0 "/></g></g></g><g fill="#03989e" fill-opacity="0.502"><g transform="translate(204.82932, 307.149911)"><g><path d="M 10.359375 0.34375 C 8.242188 0.34375 6.535156 0.113281 5.234375 -0.34375 C 3.941406 -0.800781 2.953125 -1.425781 2.265625 -2.21875 C 1.585938 -3.019531 1.132812 -3.941406 0.90625 -4.984375 L 7.890625 -4.984375 C 8.410156 -4.242188 9.234375 -3.875 10.359375 -3.875 C 11.492188 -3.875 12.316406 -4.242188 12.828125 -4.984375 C 12.878906 -5.054688 12.90625 -5.125 12.90625 -5.1875 C 12.90625 -5.382812 12.644531 -5.53125 12.125 -5.625 C 11.601562 -5.71875 10.820312 -5.789062 9.78125 -5.84375 C 8.476562 -5.90625 7.109375 -6.046875 5.671875 -6.265625 C 2.472656 -6.765625 0.875 -8.050781 0.875 -10.125 C 0.875 -10.300781 0.882812 -10.488281 0.90625 -10.6875 C 1.132812 -11.726562 1.585938 -12.644531 2.265625 -13.4375 C 2.953125 -14.238281 3.941406 -14.863281 5.234375 -15.3125 C 6.535156 -15.769531 8.242188 -16 10.359375 -16 C 12.484375 -16 14.191406 -15.769531 15.484375 -15.3125 C 16.785156 -14.863281 17.773438 -14.238281 18.453125 -13.4375 C 19.128906 -12.644531 19.585938 -11.726562 19.828125 -10.6875 L 12.828125 -10.6875 C 12.316406 -11.425781 11.492188 -11.796875 10.359375 -11.796875 C 9.234375 -11.796875 8.410156 -11.425781 7.890625 -10.6875 C 7.859375 -10.625 7.84375 -10.566406 7.84375 -10.515625 C 7.84375 -10.335938 8.09375 -10.207031 8.59375 -10.125 C 9.09375 -10.039062 9.828125 -9.96875 10.796875 -9.90625 C 11.765625 -9.851562 12.800781 -9.757812 13.90625 -9.625 C 15.007812 -9.5 16.039062 -9.273438 17 -8.953125 C 17.957031 -8.628906 18.703125 -8.148438 19.234375 -7.515625 C 19.660156 -7.023438 19.875 -6.40625 19.875 -5.65625 C 19.875 -5.4375 19.859375 -5.210938 19.828125 -4.984375 C 19.585938 -3.941406 19.128906 -3.019531 18.453125 -2.21875 C 17.773438 -1.425781 16.785156 -0.800781 15.484375 -0.34375 C 14.191406 0.113281 12.484375 0.34375 10.359375 0.34375 Z M 10.359375 0.34375 "/></g></g></g><g fill="#03989e" fill-opacity="0.502"><g transform="translate(225.572765, 307.149911)"><g><path d="M 20.640625 0 L 1.75 0 L 1.75 -15.6875 L 19.78125 -15.6875 L 19.78125 -11.8125 L 8.328125 -11.8125 L 8.328125 -9.34375 L 18 -9.34375 L 18 -6.328125 L 8.328125 -6.328125 L 8.328125 -3.875 L 20.640625 -3.875 Z M 20.640625 0 "/></g></g></g><g fill="#b3e0e2" fill-opacity="1"><g transform="translate(126.542371, 305.339306)"><g><path d="M 11.859375 0.34375 C 7.984375 0.34375 5.128906 -0.457031 3.296875 -2.0625 C 1.679688 -3.46875 0.875 -5.390625 0.875 -7.828125 C 0.875 -10.265625 1.679688 -12.191406 3.296875 -13.609375 C 5.128906 -15.203125 7.984375 -16 11.859375 -16 C 14.128906 -16 16.007812 -15.738281 17.5 -15.21875 C 18.988281 -14.695312 20.144531 -13.984375 20.96875 -13.078125 C 21.789062 -12.171875 22.335938 -11.132812 22.609375 -9.96875 L 15.6875 -9.96875 C 15 -11.1875 13.722656 -11.796875 11.859375 -11.796875 C 10.273438 -11.796875 9.109375 -11.335938 8.359375 -10.421875 C 7.753906 -9.691406 7.453125 -8.828125 7.453125 -7.828125 C 7.453125 -6.828125 7.753906 -5.960938 8.359375 -5.234375 C 9.109375 -4.316406 10.273438 -3.859375 11.859375 -3.859375 C 13.722656 -3.859375 15 -4.472656 15.6875 -5.703125 L 22.609375 -5.703125 C 22.335938 -4.523438 21.789062 -3.484375 20.96875 -2.578125 C 20.144531 -1.671875 18.988281 -0.957031 17.5 -0.4375 C 16.007812 0.0820312 14.128906 0.34375 11.859375 0.34375 Z M 11.859375 0.34375 "/></g></g></g><g fill="#b3e0e2" fill-opacity="1"><g transform="translate(150.018093, 305.339306)"><g><path d="M 23.171875 0 L 16.953125 0 C 16.660156 -0.394531 16.457031 -0.898438 16.34375 -1.515625 C 16.238281 -1.984375 16.082031 -2.445312 15.875 -2.90625 C 15.675781 -3.363281 15.328125 -3.742188 14.828125 -4.046875 C 14.328125 -4.347656 13.585938 -4.507812 12.609375 -4.53125 L 8.328125 -4.53125 L 8.328125 0 L 1.75 0 L 1.75 -15.6875 L 12.453125 -15.6875 C 15.015625 -15.6875 17.078125 -15.492188 18.640625 -15.109375 C 20.210938 -14.734375 21.359375 -14.132812 22.078125 -13.3125 C 22.804688 -12.488281 23.171875 -11.421875 23.171875 -10.109375 C 23.171875 -9.003906 22.921875 -8.078125 22.421875 -7.328125 C 21.921875 -6.578125 21.128906 -5.984375 20.046875 -5.546875 C 21.085938 -5.109375 21.765625 -4.585938 22.078125 -3.984375 C 22.390625 -3.390625 22.582031 -2.734375 22.65625 -2.015625 C 22.726562 -1.367188 22.898438 -0.695312 23.171875 0 Z M 8.328125 -8.390625 L 12.09375 -8.40625 C 13.144531 -8.40625 13.972656 -8.453125 14.578125 -8.546875 C 15.179688 -8.640625 15.625 -8.769531 15.90625 -8.9375 C 16.195312 -9.101562 16.378906 -9.285156 16.453125 -9.484375 C 16.535156 -9.679688 16.578125 -9.890625 16.578125 -10.109375 C 16.578125 -10.316406 16.535156 -10.519531 16.453125 -10.71875 C 16.378906 -10.925781 16.195312 -11.109375 15.90625 -11.265625 C 15.625 -11.429688 15.179688 -11.5625 14.578125 -11.65625 C 13.972656 -11.757812 13.144531 -11.8125 12.09375 -11.8125 L 8.328125 -11.8125 Z M 8.328125 -8.390625 "/></g></g></g><g fill="#b3e0e2" fill-opacity="1"><g transform="translate(174.051199, 305.339306)"><g><path d="M 11.03125 0.34375 C 7.207031 0.34375 4.515625 -0.453125 2.953125 -2.046875 C 1.640625 -3.378906 0.984375 -5.304688 0.984375 -7.828125 L 0.984375 -15.671875 L 7.5625 -15.671875 L 7.5625 -7.828125 C 7.5625 -6.734375 7.75 -5.867188 8.125 -5.234375 C 8.65625 -4.328125 9.625 -3.875 11.03125 -3.875 C 12.445312 -3.875 13.421875 -4.328125 13.953125 -5.234375 C 14.328125 -5.890625 14.515625 -6.753906 14.515625 -7.828125 L 14.515625 -15.671875 L 21.09375 -15.671875 L 21.09375 -7.734375 C 21.09375 -5.273438 20.4375 -3.378906 19.125 -2.046875 C 17.5625 -0.453125 14.863281 0.34375 11.03125 0.34375 Z M 11.03125 0.34375 "/></g></g></g><g fill="#b3e0e2" fill-opacity="1"><g transform="translate(196.117066, 305.339306)"><g><path d="M 8.328125 0 L 1.75 0 L 1.75 -15.6875 L 8.328125 -15.6875 Z M 8.328125 0 "/></g></g></g><g fill="#b3e0e2" fill-opacity="1"><g transform="translate(206.193703, 305.339306)"><g><path d="M 10.359375 0.34375 C 8.242188 0.34375 6.535156 0.113281 5.234375 -0.34375 C 3.941406 -0.800781 2.953125 -1.425781 2.265625 -2.21875 C 1.585938 -3.019531 1.132812 -3.941406 0.90625 -4.984375 L 7.890625 -4.984375 C 8.410156 -4.242188 9.234375 -3.875 10.359375 -3.875 C 11.492188 -3.875 12.316406 -4.242188 12.828125 -4.984375 C 12.878906 -5.054688 12.90625 -5.125 12.90625 -5.1875 C 12.90625 -5.382812 12.644531 -5.53125 12.125 -5.625 C 11.601562 -5.71875 10.820312 -5.789062 9.78125 -5.84375 C 8.476562 -5.90625 7.109375 -6.046875 5.671875 -6.265625 C 2.472656 -6.765625 0.875 -8.050781 0.875 -10.125 C 0.875 -10.300781 0.882812 -10.488281 0.90625 -10.6875 C 1.132812 -11.726562 1.585938 -12.644531 2.265625 -13.4375 C 2.953125 -14.238281 3.941406 -14.863281 5.234375 -15.3125 C 6.535156 -15.769531 8.242188 -16 10.359375 -16 C 12.484375 -16 14.191406 -15.769531 15.484375 -15.3125 C 16.785156 -14.863281 17.773438 -14.238281 18.453125 -13.4375 C 19.128906 -12.644531 19.585938 -11.726562 19.828125 -10.6875 L 12.828125 -10.6875 C 12.316406 -11.425781 11.492188 -11.796875 10.359375 -11.796875 C 9.234375 -11.796875 8.410156 -11.425781 7.890625 -10.6875 C 7.859375 -10.625 7.84375 -10.566406 7.84375 -10.515625 C 7.84375 -10.335938 8.09375 -10.207031 8.59375 -10.125 C 9.09375 -10.039062 9.828125 -9.96875 10.796875 -9.90625 C 11.765625 -9.851562 12.800781 -9.757812 13.90625 -9.625 C 15.007812 -9.5 16.039062 -9.273438 17 -8.953125 C 17.957031 -8.628906 18.703125 -8.148438 19.234375 -7.515625 C 19.660156 -7.023438 19.875 -6.40625 19.875 -5.65625 C 19.875 -5.4375 19.859375 -5.210938 19.828125 -4.984375 C 19.585938 -3.941406 19.128906 -3.019531 18.453125 -2.21875 C 17.773438 -1.425781 16.785156 -0.800781 15.484375 -0.34375 C 14.191406 0.113281 12.484375 0.34375 10.359375 0.34375 Z M 10.359375 0.34375 "/></g></g></g><g fill="#b3e0e2" fill-opacity="1"><g transform="translate(226.937147, 305.339306)"><g><path d="M 20.640625 0 L 1.75 0 L 1.75 -15.6875 L 19.78125 -15.6875 L 19.78125 -11.8125 L 8.328125 -11.8125 L 8.328125 -9.34375 L 18 -9.34375 L 18 -6.328125 L 8.328125 -6.328125 L 8.328125 -3.875 L 20.640625 -3.875 Z M 20.640625 0 "/></g></g></g></svg>