<svg xmlns="http://www.w3.org/2000/svg" xmlns:xlink="http://www.w3.org/1999/xlink" width="500" zoomAndPan="magnify" viewBox="0 0 375 374.999991" height="500" preserveAspectRatio="xMidYMid meet" version="1.0"><defs><g/><clipPath id="f2f4da08ea"><path d="M 90.402344 64.226562 L 284.734375 64.226562 L 284.734375 258.558594 L 90.402344 258.558594 Z M 90.402344 64.226562 " clip-rule="nonzero"/></clipPath><clipPath id="e4c853c0b5"><path d="M 187.570312 64.226562 C 133.90625 64.226562 90.402344 107.726562 90.402344 161.390625 C 90.402344 215.054688 133.90625 258.558594 187.570312 258.558594 C 241.230469 258.558594 284.734375 215.054688 284.734375 161.390625 C 284.734375 107.726562 241.230469 64.226562 187.570312 64.226562 " clip-rule="nonzero"/></clipPath><clipPath id="a009dba90d"><path d="M 112.03125 161.390625 L 351.40625 161.390625 L 351.40625 275.382812 L 112.03125 275.382812 Z M 112.03125 161.390625 " clip-rule="nonzero"/></clipPath><clipPath id="8f3e36ed3f"><path d="M 120.257812 89.882812 L 163.449219 89.882812 L 163.449219 160 L 120.257812 160 Z M 120.257812 89.882812 " clip-rule="nonzero"/></clipPath><clipPath id="d07de4091c"><path d="M 150.226562 89.882812 L 141.828125 89.882812 L 141.269531 90.253906 C 139.890625 91.152344 138.328125 92.003906 136.660156 92.769531 C 134.964844 93.566406 133.214844 94.28125 131.464844 94.917969 C 129.742188 95.527344 128.046875 96.054688 126.429688 96.453125 C 124.839844 96.851562 123.410156 97.117188 122.21875 97.273438 L 120.257812 97.515625 L 120.257812 109.410156 L 134.59375 109.410156 L 134.59375 145.742188 L 120.335938 145.742188 L 120.335938 159.890625 L 163.289062 159.890625 L 163.289062 145.742188 L 150.226562 145.742188 Z M 150.226562 89.882812 " clip-rule="nonzero"/></clipPath><clipPath id="52d2337648"><path d="M 167.507812 88.226562 L 208.457031 88.226562 L 208.457031 160 L 167.507812 160 Z M 167.507812 88.226562 " clip-rule="nonzero"/></clipPath><clipPath id="ab299a827b"><path d="M 203.128906 96.207031 C 201.34375 93.292969 199.085938 91.191406 196.433594 89.984375 C 193.914062 88.800781 191.054688 88.226562 187.929688 88.226562 C 184.78125 88.226562 181.890625 88.800781 179.371094 89.984375 C 176.71875 91.191406 174.464844 93.292969 172.679688 96.207031 C 170.945312 98.960938 169.660156 102.691406 168.765625 107.285156 C 167.925781 111.746094 167.507812 117.390625 167.507812 124.085938 C 167.507812 130.777344 167.925781 136.449219 168.765625 140.886719 C 169.632812 145.453125 170.945312 149.179688 172.652344 151.9375 C 174.4375 154.851562 176.695312 156.953125 179.371094 158.160156 C 181.917969 159.3125 184.804688 159.917969 187.929688 159.917969 C 191.054688 159.917969 193.914062 159.339844 196.460938 158.160156 C 199.113281 156.953125 201.371094 154.851562 203.15625 151.9375 C 204.835938 149.179688 206.148438 145.453125 207.015625 140.886719 C 207.882812 136.449219 208.300781 130.777344 208.300781 124.085938 C 208.300781 117.390625 207.855469 111.71875 207.015625 107.257812 C 206.121094 102.691406 204.835938 98.960938 203.128906 96.207031 Z M 189.792969 145.242188 C 189.503906 145.503906 189.007812 145.875 187.929688 145.875 C 186.855469 145.875 186.355469 145.503906 186.066406 145.242188 C 185.488281 144.691406 184.988281 143.71875 184.621094 142.433594 C 184.175781 140.886719 183.859375 138.863281 183.703125 136.421875 C 183.519531 133.875 183.441406 130.832031 183.441406 127.367188 L 183.441406 120.75 C 183.441406 117.285156 183.519531 114.238281 183.703125 111.695312 C 183.859375 109.253906 184.175781 107.230469 184.621094 105.683594 C 184.988281 104.371094 185.488281 103.398438 186.066406 102.875 C 186.355469 102.609375 186.855469 102.242188 187.929688 102.242188 C 189.007812 102.242188 189.503906 102.609375 189.792969 102.875 C 190.371094 103.425781 190.871094 104.394531 191.238281 105.683594 C 191.683594 107.230469 192 109.253906 192.128906 111.667969 C 192.289062 114.214844 192.367188 117.257812 192.367188 120.75 L 192.367188 127.367188 C 192.367188 130.832031 192.289062 133.902344 192.128906 136.449219 C 191.972656 138.890625 191.683594 140.886719 191.238281 142.433594 C 190.84375 143.71875 190.34375 144.691406 189.792969 145.242188 Z M 189.792969 145.242188 " clip-rule="nonzero"/></clipPath><clipPath id="6cf69ba6f9"><path d="M 212.585938 88.226562 L 253.539062 88.226562 L 253.539062 160 L 212.585938 160 Z M 212.585938 88.226562 " clip-rule="nonzero"/></clipPath><clipPath id="ff4ff48780"><path d="M 248.207031 96.207031 C 246.421875 93.292969 244.167969 91.191406 241.515625 89.984375 C 238.996094 88.800781 236.132812 88.226562 233.007812 88.226562 C 229.859375 88.226562 226.972656 88.800781 224.449219 89.984375 C 221.800781 91.191406 219.542969 93.292969 217.757812 96.207031 C 216.023438 98.960938 214.738281 102.691406 213.84375 107.285156 C 213.003906 111.746094 212.585938 117.390625 212.585938 124.085938 C 212.585938 130.777344 213.003906 136.449219 213.84375 140.886719 C 214.710938 145.453125 216.023438 149.179688 217.730469 151.9375 C 219.515625 154.851562 221.773438 156.953125 224.449219 158.160156 C 226.996094 159.3125 229.886719 159.917969 233.007812 159.917969 C 236.132812 159.917969 238.996094 159.339844 241.539062 158.160156 C 244.191406 156.953125 246.449219 154.851562 248.234375 151.9375 C 249.914062 149.179688 251.226562 145.453125 252.09375 140.886719 C 252.960938 136.449219 253.378906 130.777344 253.378906 124.085938 C 253.378906 117.390625 252.933594 111.71875 252.09375 107.257812 C 251.203125 102.691406 249.914062 98.960938 248.207031 96.207031 Z M 234.871094 145.242188 C 234.585938 145.503906 234.085938 145.875 233.007812 145.875 C 231.933594 145.875 231.433594 145.503906 231.144531 145.242188 C 230.566406 144.691406 230.070312 143.71875 229.703125 142.433594 C 229.253906 140.886719 228.941406 138.863281 228.78125 136.421875 C 228.597656 133.875 228.519531 130.832031 228.519531 127.367188 L 228.519531 120.75 C 228.519531 117.285156 228.597656 114.238281 228.78125 111.695312 C 228.941406 109.253906 229.253906 107.230469 229.703125 105.683594 C 230.070312 104.371094 230.566406 103.398438 231.144531 102.875 C 231.433594 102.609375 231.933594 102.242188 233.007812 102.242188 C 234.085938 102.242188 234.585938 102.609375 234.871094 102.875 C 235.449219 103.425781 235.949219 104.394531 236.316406 105.683594 C 236.761719 107.230469 237.078125 109.253906 237.210938 111.667969 C 237.367188 114.214844 237.445312 117.257812 237.445312 120.75 L 237.445312 127.367188 C 237.445312 130.832031 237.367188 133.902344 237.210938 136.449219 C 237.050781 138.890625 236.761719 140.886719 236.316406 142.433594 C 235.921875 143.71875 235.425781 144.691406 234.871094 145.242188 Z M 234.871094 145.242188 " clip-rule="nonzero"/></clipPath></defs><g clip-path="url(#f2f4da08ea)"><g clip-path="url(#e4c853c0b5)"><path fill="#004aad" d="M 90.402344 64.226562 L 284.734375 64.226562 L 284.734375 258.558594 L 90.402344 258.558594 Z M 90.402344 64.226562 " fill-opacity="1" fill-rule="nonzero"/></g></g><g clip-path="url(#a009dba90d)"><path fill="#ffffff" d="M 221.9375 218.917969 C 223.066406 218.917969 223.976562 219.832031 223.976562 220.957031 C 223.976562 222.089844 223.066406 223.003906 221.9375 223.003906 C 220.816406 223.003906 219.90625 222.089844 219.90625 220.957031 C 219.90625 219.832031 220.816406 218.917969 221.9375 218.917969 Z M 235.992188 223.359375 C 237.050781 223.359375 237.90625 224.21875 237.90625 225.277344 C 237.90625 226.335938 237.050781 227.191406 235.992188 227.191406 C 234.9375 227.191406 234.082031 226.335938 234.082031 225.277344 C 234.082031 224.21875 234.9375 223.359375 235.992188 223.359375 Z M 250.398438 227.496094 C 251.457031 227.496094 252.3125 228.363281 252.3125 229.421875 C 252.3125 230.480469 251.457031 231.339844 250.398438 231.339844 C 249.34375 231.339844 248.480469 230.480469 248.480469 229.421875 C 248.480469 228.363281 249.34375 227.496094 250.398438 227.496094 Z M 262.949219 230.96875 C 263.914062 230.96875 264.703125 231.761719 264.703125 232.738281 C 264.703125 233.714844 263.914062 234.507812 262.949219 234.507812 C 261.976562 234.507812 261.183594 233.714844 261.183594 232.738281 C 261.183594 231.761719 261.976562 230.96875 262.949219 230.96875 Z M 275.902344 234.441406 C 276.785156 234.441406 277.5 235.164062 277.5 236.046875 C 277.5 236.929688 276.785156 237.648438 275.902344 237.648438 C 275.019531 237.648438 274.304688 236.929688 274.304688 236.046875 C 274.304688 235.164062 275.019531 234.441406 275.902344 234.441406 Z M 286.84375 238.402344 C 287.589844 238.402344 288.195312 239.011719 288.195312 239.769531 C 288.195312 240.511719 287.589844 241.121094 286.84375 241.121094 C 286.09375 241.121094 285.492188 240.511719 285.492188 239.769531 C 285.492188 239.011719 286.09375 238.402344 286.84375 238.402344 Z M 299.605469 242.585938 C 300.230469 242.585938 300.746094 243.09375 300.746094 243.730469 C 300.746094 244.355469 300.230469 244.871094 299.605469 244.871094 C 298.972656 244.871094 298.46875 244.355469 298.46875 243.730469 C 298.46875 243.09375 298.972656 242.585938 299.605469 242.585938 Z M 241.101562 234.644531 C 242.15625 234.644531 243.011719 235.503906 243.011719 236.5625 C 243.011719 237.621094 242.15625 238.476562 241.101562 238.476562 C 240.046875 238.476562 239.179688 237.621094 239.179688 236.5625 C 239.179688 235.503906 240.046875 234.644531 241.101562 234.644531 Z M 256.289062 237.308594 C 257.34375 237.308594 258.207031 238.175781 258.207031 239.234375 C 258.207031 240.292969 257.34375 241.148438 256.289062 241.148438 C 255.230469 241.148438 254.378906 240.292969 254.378906 239.234375 C 254.378906 238.175781 255.230469 237.308594 256.289062 237.308594 Z M 269.902344 239.980469 C 270.878906 239.980469 271.667969 240.761719 271.667969 241.738281 C 271.667969 242.714844 270.878906 243.507812 269.902344 243.507812 C 268.929688 243.507812 268.140625 242.714844 268.140625 241.738281 C 268.140625 240.761719 268.929688 239.980469 269.902344 239.980469 Z M 280.84375 241.96875 C 281.71875 241.96875 282.433594 242.6875 282.433594 243.574219 C 282.433594 244.457031 281.71875 245.164062 280.84375 245.164062 C 279.964844 245.164062 279.246094 244.457031 279.246094 243.574219 C 279.246094 242.6875 279.964844 241.96875 280.84375 241.96875 Z M 206.890625 213.640625 C 208.054688 213.640625 209.011719 214.589844 209.011719 215.769531 C 209.011719 216.949219 208.054688 217.90625 206.890625 217.90625 C 205.710938 217.90625 204.757812 216.949219 204.757812 215.769531 C 204.757812 214.589844 205.710938 213.640625 206.890625 213.640625 Z M 300.46875 272.515625 C 300.46875 269.605469 288.324219 270.085938 287.15625 270.085938 L 187.597656 270.085938 C 185.757812 270.085938 170.003906 269.84375 170.003906 272.515625 C 170.003906 275.1875 185.683594 274.949219 187.511719 274.949219 L 287.011719 274.949219 C 288.175781 274.949219 300.46875 275.445312 300.46875 272.515625 Z M 224.582031 194.148438 C 258.824219 206.703125 290.226562 220.964844 320.910156 235.050781 C 323.050781 236.027344 322.429688 236.941406 320.460938 236.183594 C 287.71875 223.636719 255.132812 210.695312 222.222656 198.589844 C 213.300781 195.300781 215.625 190.871094 224.582031 194.148438 Z M 310.410156 210.722656 C 310.117188 208.714844 309.675781 205.242188 310.199219 205.101562 C 310.925781 204.910156 314.019531 205.25 315.289062 206.566406 C 316.4375 207.753906 318.796875 215.335938 319.257812 216.847656 C 319.847656 217.253906 320.433594 217.667969 321.011719 218.082031 C 324.613281 220.613281 326.53125 223.5 321.085938 219.898438 C 296.675781 203.757812 270.050781 189.164062 241.734375 175.855469 C 229.230469 169.976562 226.46875 167.019531 216.460938 178.203125 C 244.234375 189.066406 289.316406 208.757812 302.601562 216.496094 C 313.140625 222.640625 317.980469 225.914062 320.304688 227.386719 C 327.296875 231.808594 324.457031 233.0625 318.367188 229.847656 C 290.113281 214.914062 214.761719 180.644531 187.300781 179.566406 C 182.699219 179.390625 180.347656 181.214844 179.160156 182.875 C 187.144531 183.859375 197.609375 186.050781 202.085938 188.207031 C 204.710938 189.46875 204.269531 191.117188 201.082031 190.355469 C 198.078125 189.644531 191.585938 187.96875 183.039062 187.617188 C 172.585938 187.195312 164.40625 188.289062 164.40625 188.289062 L 167.46875 183.289062 L 167.484375 183.277344 C 170.269531 177.503906 174.21875 173.53125 178.582031 171.949219 C 182.210938 170.621094 188.175781 169.339844 195.644531 170.925781 C 197.179688 171.25 199.648438 172.011719 202.835938 173.117188 C 205.554688 169.636719 208.460938 166.238281 212.234375 163.242188 C 219.675781 157.6875 234.6875 166.042969 242.289062 169.929688 C 248.636719 173.171875 254.902344 176.535156 261.121094 180.027344 C 260.910156 178.265625 260.625 175.144531 261.277344 174.96875 C 262.1875 174.730469 266.042969 175.15625 267.625 176.804688 C 268.828125 178.054688 270.820312 183.574219 271.695312 186.097656 C 275.992188 188.632812 280.265625 191.210938 284.519531 193.855469 C 284.171875 191.605469 283.5 186.734375 284.171875 186.550781 C 285.042969 186.320312 288.746094 186.722656 290.261719 188.308594 C 291.605469 189.699219 294.339844 198.433594 294.976562 200.46875 C 300.148438 203.8125 305.292969 207.238281 310.410156 210.722656 Z M 251.300781 182.9375 C 262.417969 188.328125 304.871094 212.175781 311.164062 216.488281 C 312.835938 217.632812 312 218.765625 310.4375 217.898438 C 290.75 206.953125 270.582031 196.507812 249.875 186.585938 C 245.410156 184.449219 246.980469 180.839844 251.300781 182.9375 Z M 331.992188 269.550781 L 323.988281 269.550781 C 313.304688 269.550781 313.175781 275.382812 323.960938 275.382812 L 331.917969 275.382812 C 341.847656 275.410156 341.785156 269.566406 331.992188 269.550781 Z M 183.214844 261.390625 C 179.238281 257.566406 119.730469 200.550781 115.734375 195.660156 C 111.601562 190.601562 111.664062 186.761719 112.453125 185.480469 C 112.929688 184.714844 131.691406 186.28125 153.253906 190.574219 C 213.210938 202.496094 278.042969 227.496094 334.996094 248.914062 C 334.128906 255.070312 332.957031 257.933594 328.683594 261.390625 C 337.035156 261.445312 351.402344 261.773438 351.402344 263.664062 C 351.402344 266.167969 326.203125 265.949219 323.253906 265.949219 L 163.3125 265.949219 C 161.429688 265.949219 141.660156 266.417969 141.660156 263.664062 C 141.660156 260.9375 161.183594 261.390625 163.066406 261.390625 L 183.214844 261.390625 " fill-opacity="1" fill-rule="evenodd"/></g><g clip-path="url(#8f3e36ed3f)"><g clip-path="url(#d07de4091c)"><path fill="#629ded" d="M 120.257812 89.882812 L 163.183594 89.882812 L 163.183594 159.839844 L 120.257812 159.839844 Z M 120.257812 89.882812 " fill-opacity="1" fill-rule="nonzero"/></g></g><g clip-path="url(#52d2337648)"><g clip-path="url(#ab299a827b)"><path fill="#629ded" d="M 167.507812 88.226562 L 208.195312 88.226562 L 208.195312 159.890625 L 167.507812 159.890625 Z M 167.507812 88.226562 " fill-opacity="1" fill-rule="nonzero"/></g></g><g clip-path="url(#6cf69ba6f9)"><g clip-path="url(#ff4ff48780)"><path fill="#629ded" d="M 212.585938 88.226562 L 253.273438 88.226562 L 253.273438 159.890625 L 212.585938 159.890625 Z M 212.585938 88.226562 " fill-opacity="1" fill-rule="nonzero"/></g></g><g fill="#004aad" fill-opacity="1"><g transform="translate(103.01395, 294.039555)"><g><path d="M 11.34375 0.328125 C 7.632812 0.328125 4.90625 -0.4375 3.15625 -1.96875 C 1.613281 -3.3125 0.84375 -5.148438 0.84375 -7.484375 C 0.84375 -9.816406 1.613281 -11.660156 3.15625 -13.015625 C 4.90625 -14.535156 7.632812 -15.296875 11.34375 -15.296875 C 13.519531 -15.296875 15.316406 -15.046875 16.734375 -14.546875 C 18.148438 -14.046875 19.253906 -13.363281 20.046875 -12.5 C 20.835938 -11.632812 21.359375 -10.644531 21.609375 -9.53125 L 15 -9.53125 C 14.332031 -10.695312 13.113281 -11.28125 11.34375 -11.28125 C 9.820312 -11.28125 8.703125 -10.84375 7.984375 -9.96875 C 7.410156 -9.269531 7.125 -8.441406 7.125 -7.484375 C 7.125 -6.523438 7.410156 -5.695312 7.984375 -5 C 8.703125 -4.125 9.820312 -3.6875 11.34375 -3.6875 C 13.113281 -3.6875 14.332031 -4.273438 15 -5.453125 L 21.609375 -5.453125 C 21.359375 -4.328125 20.835938 -3.332031 20.046875 -2.46875 C 19.253906 -1.601562 18.148438 -0.921875 16.734375 -0.421875 C 15.316406 0.078125 13.519531 0.328125 11.34375 0.328125 Z M 11.34375 0.328125 "/></g></g></g><g fill="#004aad" fill-opacity="1"><g transform="translate(125.458936, 294.039555)"><g><path d="M 11.34375 0.328125 C 7.632812 0.328125 4.90625 -0.4375 3.15625 -1.96875 C 1.613281 -3.320312 0.84375 -5.164062 0.84375 -7.5 C 0.84375 -9.820312 1.613281 -11.660156 3.15625 -13.015625 C 4.90625 -14.535156 7.632812 -15.296875 11.34375 -15.296875 C 15.050781 -15.296875 17.78125 -14.535156 19.53125 -13.015625 C 21.070312 -11.660156 21.84375 -9.820312 21.84375 -7.5 C 21.84375 -5.164062 21.070312 -3.320312 19.53125 -1.96875 C 17.78125 -0.4375 15.050781 0.328125 11.34375 0.328125 Z M 11.34375 -3.703125 C 12.863281 -3.703125 13.976562 -4.132812 14.6875 -5 C 15.257812 -5.707031 15.546875 -6.539062 15.546875 -7.5 C 15.546875 -8.445312 15.257812 -9.269531 14.6875 -9.96875 C 13.976562 -10.84375 12.863281 -11.28125 11.34375 -11.28125 C 9.820312 -11.28125 8.703125 -10.84375 7.984375 -9.96875 C 7.410156 -9.269531 7.125 -8.445312 7.125 -7.5 C 7.125 -6.539062 7.410156 -5.707031 7.984375 -5 C 8.703125 -4.132812 9.820312 -3.703125 11.34375 -3.703125 Z M 11.34375 -3.703125 "/></g></g></g><g fill="#004aad" fill-opacity="1"><g transform="translate(148.133805, 294.039555)"><g><path d="M 10.546875 0.328125 C 6.890625 0.328125 4.316406 -0.429688 2.828125 -1.953125 C 1.566406 -3.234375 0.9375 -5.078125 0.9375 -7.484375 L 0.9375 -14.984375 L 7.234375 -14.984375 L 7.234375 -7.484375 C 7.234375 -6.441406 7.410156 -5.613281 7.765625 -5 C 8.273438 -4.132812 9.203125 -3.703125 10.546875 -3.703125 C 11.898438 -3.703125 12.832031 -4.132812 13.34375 -5 C 13.695312 -5.632812 13.875 -6.460938 13.875 -7.484375 L 13.875 -14.984375 L 20.15625 -14.984375 L 20.15625 -7.40625 C 20.15625 -5.050781 19.535156 -3.234375 18.296875 -1.953125 C 16.796875 -0.429688 14.210938 0.328125 10.546875 0.328125 Z M 10.546875 0.328125 "/></g></g></g><g fill="#004aad" fill-opacity="1"><g transform="translate(169.230838, 294.039555)"><g><path d="M 23.921875 0 L 16.4375 0 L 7.96875 -10.15625 L 7.96875 0 L 1.671875 0 L 1.671875 -15 L 9.15625 -15 L 17.640625 -4.90625 L 17.640625 -15 L 23.921875 -15 Z M 23.921875 0 "/></g></g></g><g fill="#004aad" fill-opacity="1"><g transform="translate(194.821047, 294.039555)"><g><path d="M 12.796875 0 L 6.5 0 L 6.5 -11.28125 L 0.625 -11.28125 L 0.625 -15 L 18.671875 -15 L 18.671875 -11.28125 L 12.796875 -11.28125 Z M 12.796875 0 "/></g></g></g><g fill="#004aad" fill-opacity="1"><g transform="translate(214.110359, 294.039555)"><g><path d="M 7.96875 0 L 1.671875 0 L 1.671875 -15 L 7.96875 -15 Z M 7.96875 0 "/></g></g></g><g fill="#004aad" fill-opacity="1"><g transform="translate(223.744566, 294.039555)"><g><path d="M 23.921875 0 L 16.4375 0 L 7.96875 -10.15625 L 7.96875 0 L 1.671875 0 L 1.671875 -15 L 9.15625 -15 L 17.640625 -4.90625 L 17.640625 -15 L 23.921875 -15 Z M 23.921875 0 "/></g></g></g><g fill="#004aad" fill-opacity="1"><g transform="translate(249.334776, 294.039555)"><g><path d="M 11.34375 0.328125 C 7.632812 0.328125 4.90625 -0.4375 3.15625 -1.96875 C 1.613281 -3.320312 0.84375 -5.160156 0.84375 -7.484375 C 0.84375 -9.816406 1.613281 -11.660156 3.15625 -13.015625 C 4.90625 -14.535156 7.632812 -15.296875 11.34375 -15.296875 C 13.445312 -15.296875 15.195312 -15.054688 16.59375 -14.578125 C 18 -14.109375 19.101562 -13.460938 19.90625 -12.640625 C 20.707031 -11.828125 21.253906 -10.890625 21.546875 -9.828125 L 14.8125 -9.828125 C 14.101562 -10.796875 12.945312 -11.28125 11.34375 -11.28125 C 9.820312 -11.28125 8.703125 -10.84375 7.984375 -9.96875 C 7.410156 -9.269531 7.125 -8.441406 7.125 -7.484375 C 7.125 -6.523438 7.410156 -5.695312 7.984375 -5 C 8.703125 -4.132812 9.820312 -3.703125 11.34375 -3.703125 C 12.570312 -3.703125 13.492188 -3.804688 14.109375 -4.015625 C 14.722656 -4.234375 15.171875 -4.507812 15.453125 -4.84375 L 13 -4.84375 L 13 -7.484375 L 21.546875 -7.484375 L 21.546875 0.015625 L 18.921875 0.015625 L 18.390625 -1.4375 C 16.722656 -0.257812 14.375 0.328125 11.34375 0.328125 Z M 11.34375 0.328125 "/></g></g></g><g fill="#004aad" fill-opacity="1"><g transform="translate(129.293447, 323.797964)"><g><path d="M 11.34375 0.328125 C 7.632812 0.328125 4.90625 -0.4375 3.15625 -1.96875 C 1.613281 -3.3125 0.84375 -5.148438 0.84375 -7.484375 C 0.84375 -9.816406 1.613281 -11.660156 3.15625 -13.015625 C 4.90625 -14.535156 7.632812 -15.296875 11.34375 -15.296875 C 13.519531 -15.296875 15.316406 -15.046875 16.734375 -14.546875 C 18.148438 -14.046875 19.253906 -13.363281 20.046875 -12.5 C 20.835938 -11.632812 21.359375 -10.644531 21.609375 -9.53125 L 15 -9.53125 C 14.332031 -10.695312 13.113281 -11.28125 11.34375 -11.28125 C 9.820312 -11.28125 8.703125 -10.84375 7.984375 -9.96875 C 7.410156 -9.269531 7.125 -8.441406 7.125 -7.484375 C 7.125 -6.523438 7.410156 -5.695312 7.984375 -5 C 8.703125 -4.125 9.820312 -3.6875 11.34375 -3.6875 C 13.113281 -3.6875 14.332031 -4.273438 15 -5.453125 L 21.609375 -5.453125 C 21.359375 -4.328125 20.835938 -3.332031 20.046875 -2.46875 C 19.253906 -1.601562 18.148438 -0.921875 16.734375 -0.421875 C 15.316406 0.078125 13.519531 0.328125 11.34375 0.328125 Z M 11.34375 0.328125 "/></g></g></g><g fill="#004aad" fill-opacity="1"><g transform="translate(151.738433, 323.797964)"><g><path d="M 22.140625 0 L 16.203125 0 C 15.929688 -0.375 15.738281 -0.851562 15.625 -1.4375 C 15.53125 -1.894531 15.382812 -2.335938 15.1875 -2.765625 C 14.988281 -3.203125 14.648438 -3.566406 14.171875 -3.859375 C 13.703125 -4.148438 12.992188 -4.304688 12.046875 -4.328125 L 7.96875 -4.328125 L 7.96875 0 L 1.671875 0 L 1.671875 -15 L 11.90625 -15 C 14.351562 -15 16.328125 -14.816406 17.828125 -14.453125 C 19.328125 -14.085938 20.421875 -13.507812 21.109375 -12.71875 C 21.796875 -11.9375 22.140625 -10.914062 22.140625 -9.65625 C 22.140625 -8.601562 21.898438 -7.71875 21.421875 -7 C 20.953125 -6.28125 20.203125 -5.710938 19.171875 -5.296875 C 20.171875 -4.890625 20.816406 -4.394531 21.109375 -3.8125 C 21.398438 -3.238281 21.582031 -2.609375 21.65625 -1.921875 C 21.726562 -1.304688 21.890625 -0.664062 22.140625 0 Z M 7.96875 -8.03125 L 11.5625 -8.03125 C 12.5625 -8.03125 13.347656 -8.078125 13.921875 -8.171875 C 14.503906 -8.265625 14.929688 -8.390625 15.203125 -8.546875 C 15.484375 -8.703125 15.660156 -8.875 15.734375 -9.0625 C 15.816406 -9.257812 15.859375 -9.457031 15.859375 -9.65625 C 15.859375 -9.863281 15.816406 -10.0625 15.734375 -10.25 C 15.660156 -10.445312 15.484375 -10.625 15.203125 -10.78125 C 14.929688 -10.9375 14.503906 -11.054688 13.921875 -11.140625 C 13.347656 -11.234375 12.5625 -11.28125 11.5625 -11.28125 L 7.96875 -11.28125 Z M 7.96875 -8.03125 "/></g></g></g><g fill="#004aad" fill-opacity="1"><g transform="translate(174.71633, 323.797964)"><g><path d="M 10.546875 0.328125 C 6.890625 0.328125 4.316406 -0.429688 2.828125 -1.953125 C 1.566406 -3.234375 0.9375 -5.078125 0.9375 -7.484375 L 0.9375 -14.984375 L 7.234375 -14.984375 L 7.234375 -7.484375 C 7.234375 -6.441406 7.410156 -5.613281 7.765625 -5 C 8.273438 -4.132812 9.203125 -3.703125 10.546875 -3.703125 C 11.898438 -3.703125 12.832031 -4.132812 13.34375 -5 C 13.695312 -5.632812 13.875 -6.460938 13.875 -7.484375 L 13.875 -14.984375 L 20.15625 -14.984375 L 20.15625 -7.40625 C 20.15625 -5.050781 19.535156 -3.234375 18.296875 -1.953125 C 16.796875 -0.429688 14.210938 0.328125 10.546875 0.328125 Z M 10.546875 0.328125 "/></g></g></g><g fill="#004aad" fill-opacity="1"><g transform="translate(195.813362, 323.797964)"><g><path d="M 7.96875 0 L 1.671875 0 L 1.671875 -15 L 7.96875 -15 Z M 7.96875 0 "/></g></g></g><g fill="#004aad" fill-opacity="1"><g transform="translate(205.44757, 323.797964)"><g><path d="M 9.90625 0.328125 C 7.875 0.328125 6.238281 0.109375 5 -0.328125 C 3.757812 -0.765625 2.816406 -1.363281 2.171875 -2.125 C 1.523438 -2.882812 1.09375 -3.765625 0.875 -4.765625 L 7.546875 -4.765625 C 8.035156 -4.054688 8.820312 -3.703125 9.90625 -3.703125 C 10.988281 -3.703125 11.773438 -4.054688 12.265625 -4.765625 C 12.304688 -4.835938 12.328125 -4.898438 12.328125 -4.953125 C 12.328125 -5.140625 12.078125 -5.28125 11.578125 -5.375 C 11.085938 -5.46875 10.347656 -5.539062 9.359375 -5.59375 C 8.109375 -5.644531 6.796875 -5.773438 5.421875 -5.984375 C 2.367188 -6.460938 0.84375 -7.691406 0.84375 -9.671875 C 0.84375 -9.835938 0.851562 -10.019531 0.875 -10.21875 C 1.09375 -11.207031 1.523438 -12.082031 2.171875 -12.84375 C 2.816406 -13.613281 3.757812 -14.210938 5 -14.640625 C 6.238281 -15.078125 7.875 -15.296875 9.90625 -15.296875 C 11.9375 -15.296875 13.570312 -15.078125 14.8125 -14.640625 C 16.050781 -14.210938 16.992188 -13.613281 17.640625 -12.84375 C 18.285156 -12.082031 18.722656 -11.207031 18.953125 -10.21875 L 12.265625 -10.21875 C 11.773438 -10.925781 10.988281 -11.28125 9.90625 -11.28125 C 8.820312 -11.28125 8.035156 -10.925781 7.546875 -10.21875 C 7.515625 -10.15625 7.5 -10.101562 7.5 -10.0625 C 7.5 -9.882812 7.734375 -9.753906 8.203125 -9.671875 C 8.679688 -9.597656 9.382812 -9.53125 10.3125 -9.46875 C 11.25 -9.414062 12.242188 -9.328125 13.296875 -9.203125 C 14.347656 -9.078125 15.332031 -8.859375 16.25 -8.546875 C 17.164062 -8.242188 17.878906 -7.789062 18.390625 -7.1875 C 18.796875 -6.71875 19 -6.125 19 -5.40625 C 19 -5.195312 18.984375 -4.984375 18.953125 -4.765625 C 18.722656 -3.765625 18.285156 -2.882812 17.640625 -2.125 C 16.992188 -1.363281 16.050781 -0.765625 14.8125 -0.328125 C 13.570312 0.109375 11.9375 0.328125 9.90625 0.328125 Z M 9.90625 0.328125 "/></g></g></g><g fill="#004aad" fill-opacity="1"><g transform="translate(225.280243, 323.797964)"><g><path d="M 19.734375 0 L 1.671875 0 L 1.671875 -15 L 18.90625 -15 L 18.90625 -11.28125 L 7.96875 -11.28125 L 7.96875 -8.9375 L 17.21875 -8.9375 L 17.21875 -6.046875 L 7.96875 -6.046875 L 7.96875 -3.703125 L 19.734375 -3.703125 Z M 19.734375 0 "/></g></g></g></svg>